<?xml version="1.0" standalone="no"?>
<!DOCTYPE svg PUBLIC "-//W3C//DTD SVG 20010904//EN"
 "http://www.w3.org/TR/2001/REC-SVG-20010904/DTD/svg10.dtd">
<svg version="1.0" xmlns="http://www.w3.org/2000/svg"
 width="581.000000pt" height="581.000000pt" viewBox="0 0 581.000000 581.000000"
 preserveAspectRatio="xMidYMid meet">
<metadata>
Created by potrace 1.14, written by Peter Selinger 2001-2017
</metadata>
<g transform="translate(0.000000,581.000000) scale(0.100000,-0.100000)"
fill="#000000" stroke="none">
<path d="M0 2905 l0 -2905 2905 0 2905 0 0 2905 0 2905 -2905 0 -2905 0 0
-2905z m3430 2741 c0 -2 -34 -12 -75 -22 -41 -10 -70 -21 -63 -25 6 -4 18 -3
27 1 22 11 152 32 159 25 3 -3 -3 -5 -14 -5 -10 0 -26 -5 -34 -11 -12 -8 -9
-10 12 -6 16 2 33 -1 38 -8 8 -10 1 -15 -30 -20 -23 -4 -39 -9 -37 -12 3 -2
40 3 83 12 44 9 93 14 110 10 92 -17 314 -215 314 -279 0 -9 9 -20 20 -26 22
-12 76 -98 67 -107 -3 -3 1 -12 9 -20 8 -9 13 -18 10 -20 -9 -9 -85 30 -90 46
-3 9 -4 -1 -1 -21 3 -36 2 -38 -23 -37 -17 1 -21 3 -9 6 9 2 17 9 17 14 0 6
-4 7 -10 4 -5 -3 -21 2 -35 11 -23 15 -25 15 -25 0 0 -9 7 -16 15 -16 8 0 15
-8 14 -17 0 -13 -2 -14 -6 -4 -5 11 -7 11 -14 0 -7 -12 -9 -12 -9 0 0 11 -3
11 -15 1 -8 -7 -30 -16 -48 -21 -20 -5 1 -6 60 -4 90 4 91 4 97 -21 4 -14 4
-29 1 -34 -4 -6 -1 -10 5 -10 8 0 10 14 7 40 -2 22 0 40 5 40 5 0 2 7 -7 16
-9 9 -14 18 -12 20 6 6 107 -46 107 -54 0 -4 -12 -16 -27 -26 -14 -11 -24 -15
-21 -10 3 5 -1 16 -10 24 -14 13 -15 12 -9 -4 4 -10 7 -23 7 -30 0 -6 9 -12
20 -12 13 0 19 5 16 13 -7 18 19 16 34 -2 8 -10 9 -15 2 -15 -6 0 -9 -7 -6
-15 7 -18 -7 -20 -26 -2 -8 6 -6 2 4 -10 14 -18 16 -25 6 -44 -9 -16 -14 -18
-20 -9 -6 9 -10 4 -12 -16 l-4 -29 -13 26 c-7 14 -19 26 -27 26 -16 0 -16 0
-8 -22 5 -12 9 -13 14 -5 4 7 6 -7 5 -29 -1 -24 -11 -51 -21 -64 -25 -29 -47
-68 -41 -74 3 -2 13 7 24 20 17 22 21 23 29 9 9 -14 11 -14 17 1 3 9 2 17 -3
17 -6 0 -10 7 -10 15 0 13 6 15 38 15 4 0 12 -15 19 -33 6 -17 12 -27 12 -21
1 6 -6 31 -14 54 -19 54 -19 53 6 45 20 -7 22 -5 16 29 -3 20 -1 38 4 42 14 8
47 -28 41 -45 -3 -8 0 -11 7 -7 6 4 9 2 7 -6 -14 -44 -16 -68 -4 -66 18 4 21
-28 3 -45 -9 -9 -15 -20 -15 -24 1 -4 -4 -25 -11 -45 -10 -32 -14 -35 -23 -22
-9 12 -11 7 -8 -25 5 -49 -15 -114 -31 -105 -9 5 -9 4 -1 -5 13 -14 -3 -111
-18 -111 -6 0 -8 -7 -5 -15 4 -8 -7 -67 -23 -132 -47 -192 -123 -395 -168
-445 -8 -10 -12 -18 -9 -18 11 0 -35 -82 -49 -87 -15 -6 -19 -33 -6 -33 5 0
17 9 27 20 26 29 33 25 34 -17 0 -21 3 -65 7 -97 8 -75 -4 -203 -20 -219 -7
-6 -11 -19 -8 -29 8 -32 -7 -67 -28 -65 -12 1 -20 8 -20 19 0 29 -36 125 -60
159 -20 27 -22 38 -15 92 3 34 12 69 19 77 15 17 28 50 20 50 -2 0 -10 -12
-16 -27 l-12 -28 -3 35 c-2 19 -8 59 -14 88 -24 117 -102 77 -140 -71 l-11
-46 -36 24 c-20 14 -42 25 -48 25 -21 0 -102 -80 -123 -122 l-21 -43 49 -50
c67 -70 113 -130 151 -197 39 -70 36 -90 -8 -53 -51 43 -37 17 21 -39 39 -38
57 -63 66 -99 8 -26 11 -50 8 -53 -3 -3 -33 -11 -66 -18 -56 -12 -61 -11 -61
5 0 10 -4 20 -8 23 -5 3 -7 30 -4 60 4 48 2 55 -17 66 -30 16 -216 50 -273 50
-41 0 -47 3 -42 18 5 16 5 16 -6 0 -8 -14 -24 -18 -64 -18 -140 0 -350 -59
-511 -143 -138 -73 -178 -100 -195 -131 -13 -26 -12 -32 19 -91 61 -119 112
-176 212 -237 157 -95 350 -88 617 23 86 35 98 38 108 24 10 -13 19 -14 55 -6
24 6 143 11 264 11 193 0 225 3 261 19 54 24 97 70 83 88 -8 9 -5 11 13 6 12
-3 33 -6 45 -7 27 -3 43 -16 20 -16 -10 0 -17 -8 -17 -20 0 -14 7 -20 21 -20
11 0 17 -5 14 -10 -3 -6 -1 -10 4 -10 6 0 11 7 11 15 0 8 5 15 10 15 6 0 10
-2 10 -5 0 -28 -106 -179 -120 -170 -4 3 -22 -20 -39 -50 -37 -66 -91 -127
-135 -155 -30 -18 -100 -28 -135 -19 -18 5 -27 -31 -11 -41 27 -17 -180 -75
-340 -96 -100 -13 -360 -5 -394 11 -18 9 -32 12 -36 6 -15 -25 -278 41 -369
91 -73 40 -107 62 -128 81 -19 17 -25 18 -38 7 -14 -12 -14 -15 2 -33 18 -19
17 -19 -22 -14 -22 3 -49 7 -60 9 -35 6 -29 -28 6 -38 34 -10 52 -34 25 -34
-15 0 -101 -93 -101 -110 0 -5 -11 -28 -25 -51 -24 -40 -26 -41 -71 -36 -62 5
-106 38 -119 87 -15 54 -34 70 -85 70 -37 0 -47 5 -74 35 -17 20 -31 41 -32
48 0 7 -2 23 -4 37 -6 42 4 60 33 61 27 0 27 0 5 11 -16 8 -23 20 -23 38 0 15
-7 33 -16 41 -8 7 -13 21 -11 31 3 11 -2 22 -14 28 -26 14 -24 25 6 38 31 14
34 36 4 27 -20 -7 -21 -5 -16 25 4 17 17 40 29 51 32 26 112 48 180 48 l57 0
-3 -54 c-3 -45 0 -54 15 -58 13 -4 21 3 27 22 l9 26 12 -23 c15 -28 6 -59 -20
-67 -10 -4 -19 -15 -19 -26 0 -24 12 -24 35 1 10 11 21 18 23 15 3 -3 16 5 29
17 l23 21 0 -20 c0 -12 3 -28 6 -37 7 -18 -44 -35 -55 -18 -4 7 -13 6 -25 -4
-18 -13 -17 -14 16 -14 23 0 38 -6 42 -15 8 -23 26 -18 26 8 l1 22 20 -24 c19
-23 21 -23 37 -7 12 11 13 19 6 24 -25 16 -36 55 -30 102 6 42 4 48 -13 53
-14 3 -23 -3 -31 -24 -7 -16 -16 -29 -19 -29 -4 0 -20 13 -36 29 -24 26 -27
36 -22 71 7 58 47 131 82 155 32 21 37 55 8 55 -14 0 -14 3 -1 22 21 32 35 33
42 2 10 -38 79 -176 120 -236 19 -29 55 -73 80 -97 38 -38 47 -42 61 -31 21
18 19 39 -6 48 -11 5 -20 11 -20 15 1 4 -1 6 -3 5 -11 -7 -54 46 -49 59 3 9
-2 16 -14 19 -11 3 -28 19 -38 36 -15 25 -15 32 -4 40 11 8 11 9 -2 5 -19 -6
-50 54 -89 172 -96 289 -110 726 -38 1203 9 60 15 78 30 81 22 6 24 37 2 37
-10 0 -14 6 -10 18 2 9 7 33 11 52 11 58 67 285 72 290 3 3 11 -4 19 -14 17
-24 18 -16 2 19 -11 24 -9 28 18 50 l29 23 23 -21 c25 -23 30 -11 7 19 -8 10
-14 24 -15 29 0 6 5 3 11 -5 9 -12 10 -12 7 -1 -7 24 -25 24 -47 0 -11 -13
-23 -20 -26 -18 -8 9 56 189 66 184 5 -4 6 1 3 9 -7 18 64 186 79 186 6 0 8 3
4 6 -3 4 5 28 18 55 18 34 29 47 40 43 8 -4 15 -2 15 4 0 6 -5 12 -11 14 -5 2
2 15 17 28 26 24 27 24 22 3 -4 -16 -2 -20 8 -16 8 3 14 9 14 14 0 4 6 6 13 3
7 -2 21 4 31 15 12 13 63 30 152 52 75 19 131 35 126 37 -5 1 -56 -9 -112 -23
-121 -29 -110 -28 -110 -12 0 16 34 33 87 43 45 8 73 21 73 34 0 6 -7 10 -16
10 -8 0 -12 -5 -9 -10 4 -7 -2 -9 -18 -5 -13 4 -43 1 -67 -5 -75 -20 -55 -2
60 55 147 72 217 95 232 75 8 -12 9 -12 4 2 -4 14 6 19 52 28 31 6 62 13 67
15 14 5 285 6 285 1z m125 -46 c-11 -5 -29 -9 -40 -9 -17 -1 -17 1 -5 9 8 5
26 9 40 9 23 0 23 -1 5 -9z m-755 -134 c0 -2 -11 -6 -25 -8 -13 -3 -22 -1 -19
3 5 9 44 13 44 5z m-353 -111 c0 -17 -13 -20 -21 -6 -4 5 0 12 6 14 7 3 13 6
14 6 0 1 1 -6 1 -14z m38 6 c3 -5 2 -12 -3 -15 -5 -3 -9 1 -9 9 0 17 3 19 12
6z m-195 -16 c-10 -12 -7 -13 22 -4 18 5 48 11 66 14 29 4 32 2 22 -10 -7 -8
-16 -12 -21 -9 -5 3 -9 1 -9 -5 0 -5 -23 -14 -50 -20 -65 -14 -73 -14 -64 2 4
6 -1 5 -12 -4 -10 -9 -63 -24 -117 -34 -54 -10 -96 -20 -93 -22 2 -2 71 8 152
23 82 15 167 28 189 29 22 0 50 6 62 13 39 22 39 12 -2 -24 -22 -19 -60 -40
-85 -46 -25 -6 -115 -36 -200 -66 -85 -30 -169 -55 -186 -55 -21 0 -30 -5 -27
-13 10 -27 -32 -21 -102 15 -71 36 -84 51 -43 51 10 0 18 5 18 10 0 6 5 10 12
10 6 0 36 12 67 26 31 15 63 28 71 28 8 1 25 7 36 13 22 13 106 43 134 48 8 2
17 4 20 5 3 1 13 1 24 0 10 -1 22 4 27 11 5 9 11 10 21 2 14 -12 51 -2 63 16
3 6 9 11 12 11 3 0 0 -7 -7 -15z m1800 -218 c0 -18 -2 -19 -10 -7 -13 20 -13
43 0 35 6 -3 10 -16 10 -28z m-2319 3 c22 -12 37 -25 34 -30 -3 -5 -12 -7 -19
-4 -8 3 -25 -5 -39 -18 -35 -33 -81 -68 -89 -68 -5 0 -8 -5 -8 -10 0 -12 36 5
59 28 22 22 26 -2 4 -27 -9 -12 -21 -21 -25 -21 -4 0 -28 -16 -53 -35 -25 -19
-64 -40 -85 -46 -22 -7 -40 -18 -40 -25 0 -20 -23 -23 -45 -5 -18 15 -19 15
-7 0 7 -9 10 -23 7 -30 -6 -17 -45 -43 -52 -35 -10 10 -43 -15 -43 -32 0 -10
-36 -51 -79 -90 -104 -94 -147 -130 -137 -114 11 18 -9 15 -25 -5 -12 -15 -12
-16 1 -8 13 8 13 7 1 -8 -7 -9 -20 -17 -27 -17 -8 0 -14 -6 -14 -14 0 -8 -14
-25 -31 -37 -27 -19 -34 -20 -55 -9 -28 16 -30 23 -9 40 13 11 14 10 9 -6 -5
-13 2 -10 22 11 16 17 29 33 29 37 0 5 29 33 65 64 73 63 91 80 73 70 -6 -3
-14 0 -16 6 -4 9 -6 8 -6 -3 -1 -9 -20 -31 -43 -49 -23 -19 -38 -28 -34 -22
13 21 -22 13 -44 -10 -11 -12 -23 -18 -27 -15 -3 4 26 39 66 78 57 56 75 68
83 58 7 -11 8 -11 6 3 -4 21 69 89 88 81 8 -3 14 -12 14 -20 0 -9 6 -13 15 -9
10 4 15 -1 15 -14 0 -22 7 -24 30 -10 12 7 10 12 -10 30 -17 15 -24 30 -22 47
3 18 0 23 -9 18 -8 -5 -10 -4 -5 4 4 6 12 9 17 6 5 -4 9 0 9 7 0 12 90 84 195
155 32 22 207 123 212 123 2 0 22 -9 44 -20z m2430 -64 c0 -17 2 -18 7 -4 7
15 9 15 29 -1 14 -12 18 -22 13 -32 -7 -11 -15 -10 -45 4 -48 23 -56 21 -20
-4 31 -22 27 -22 -37 2 -24 8 -38 19 -38 30 0 10 -4 20 -9 23 -4 3 -6 17 -3
31 l4 25 49 -27 c34 -18 49 -33 50 -47z m-2338 16 c5 -2 -15 -18 -43 -34 -66
-37 -88 -24 -34 20 33 28 48 30 77 14z m2346 -88 c17 -5 22 -4 17 4 -5 8 -2
10 8 6 20 -8 20 -8 0 -50 -20 -41 -26 -42 -53 -8 -11 14 -25 23 -30 20 -10 -6
-31 23 -31 42 0 9 25 5 89 -14z m-126 -14 c3 -11 1 -18 -4 -14 -5 3 -9 12 -9
20 0 20 7 17 13 -6z m292 -11 c11 -17 -1 -21 -15 -4 -8 9 -8 15 -2 15 6 0 14
-5 17 -11z m-89 -30 c-8 -12 -12 -28 -9 -35 3 -8 -1 -14 -11 -14 -21 0 -20 15
2 45 21 30 39 33 18 4z m250 -94 c24 -23 41 -44 38 -48 -4 -4 -2 -7 4 -7 6 0
9 -7 6 -15 -4 -8 -9 -13 -13 -11 -3 2 -12 -2 -19 -10 -7 -8 -10 -14 -6 -14 4
0 -1 -9 -11 -20 -10 -11 -22 -20 -26 -20 -5 0 -43 28 -84 63 -69 56 -76 65
-72 92 3 17 -1 38 -8 48 -17 23 -24 21 -18 -5 3 -17 2 -19 -5 -10 -7 11 -11 8
-16 -10 -4 -13 -9 -18 -12 -11 -7 17 33 73 49 68 7 -2 24 -6 39 -9 23 -5 26
-3 21 11 -8 20 66 -31 133 -92z m-2732 -20 c-10 -8 -23 -14 -29 -14 -5 -1 1 8
15 19 14 10 27 17 29 14 3 -2 -4 -11 -15 -19z m111 -158 l54 -157 -18 -43
c-11 -26 -29 -47 -45 -55 -14 -6 -26 -17 -26 -24 0 -7 -7 -2 -16 11 -16 22
-16 24 0 33 9 5 16 14 16 19 0 6 -47 61 -105 122 l-105 112 22 17 c12 9 26 14
30 12 4 -3 8 3 8 13 1 13 17 0 56 -42 57 -63 66 -56 26 22 -12 23 -22 49 -22
57 0 14 59 70 66 63 3 -2 29 -74 59 -160z m-226 77 c-30 -22 -76 -36 -53 -16
35 31 68 51 76 46 5 -3 -5 -17 -23 -30z m2945 -29 c-14 -21 -19 -23 -32 -13
-13 11 -15 10 -10 -3 3 -8 -2 -25 -11 -38 -16 -21 -18 -21 -31 -6 -13 15 -10
20 20 46 19 16 41 27 48 24 6 -2 12 0 12 5 0 6 5 10 10 10 6 0 3 -11 -6 -25z
m26 -44 c0 -5 -5 -11 -12 -13 -7 -3 -8 -10 -4 -17 7 -11 10 -11 17 0 6 9 9 -3
9 -33 0 -53 -10 -66 -32 -40 -26 29 -31 72 -12 93 18 20 34 25 34 10z m-3090
-25 c0 -8 -189 -156 -199 -156 -5 0 -13 5 -16 10 -9 14 45 56 67 52 12 -2 16
2 13 10 -8 19 35 57 82 73 41 15 53 17 53 11z m3137 -19 c13 5 13 3 4 -15 -19
-35 -31 -35 -30 0 0 18 3 28 5 21 3 -7 12 -9 21 -6z m-3080 -14 c21 -20 126
-140 161 -187 28 -36 28 -81 1 -120 -20 -29 -130 -129 -147 -133 -6 -2 -205
227 -241 278 -12 18 -11 22 10 42 13 12 31 27 40 32 9 6 45 31 80 58 34 26 66
47 70 47 4 0 16 -8 26 -17z m3133 -12 c0 -5 -7 -11 -15 -15 -8 -3 -15 -10 -15
-15 0 -7 9 -7 26 -1 35 14 37 13 31 -9 -5 -20 10 -31 41 -31 9 0 28 -12 43
-26 25 -24 26 -28 12 -42 -12 -12 -12 -17 -3 -20 7 -3 16 1 20 7 5 9 10 8 19
-3 19 -22 3 -39 -30 -32 -30 6 -41 -10 -14 -20 12 -5 13 -10 4 -20 -13 -16 2
-19 17 -4 6 6 23 6 47 -1 46 -12 104 -84 86 -105 -13 -16 -3 -35 18 -32 8 2
21 -6 29 -17 13 -19 10 -25 -35 -69 l-49 -48 -28 43 c-15 24 -39 62 -53 84
-14 22 -25 45 -26 50 0 6 -4 11 -8 12 -4 1 -33 35 -64 75 -31 40 -74 94 -96
120 -24 29 -37 53 -34 65 3 13 5 12 6 -7 1 -23 2 -23 19 -7 14 15 15 19 3 26
-11 7 -9 13 8 30 22 22 41 28 41 12z m-3677 -133 c-22 -24 -73 -87 -112 -140
-40 -54 -77 -98 -83 -98 -6 0 -9 -3 -5 -6 11 -12 -23 -65 -48 -74 -25 -10 -34
-30 -14 -30 6 0 -9 -37 -34 -82 -68 -126 -184 -410 -202 -495 -22 -99 -42
-173 -47 -168 -3 3 -3 -7 -1 -22 4 -22 2 -25 -6 -13 -8 11 -9 5 -4 -22 3 -20
2 -54 -2 -75 -7 -34 -8 -36 -16 -15 -11 30 -21 28 -15 -3 3 -14 0 -25 -5 -25
-5 0 -4 -6 3 -14 7 -8 15 -10 18 -5 7 10 1 -119 -6 -139 -2 -7 -8 -10 -14 -7
-5 3 -10 0 -10 -8 0 -8 -7 -20 -16 -28 -13 -10 -17 -10 -24 0 -11 19 -27 6
-27 -23 0 -28 18 -26 54 7 20 17 23 18 28 4 4 -8 5 -28 3 -44 -3 -30 -9 -31
-67 -18 -28 6 -33 5 -28 -8 4 -11 0 -13 -14 -10 -15 4 -19 14 -19 44 0 22 5
39 11 39 5 0 7 5 4 10 -3 6 0 10 7 10 8 1 7 5 -5 14 -15 12 -17 23 -11 80 4
38 12 66 18 66 6 0 5 4 -3 9 -9 6 -10 11 -2 15 5 4 28 -2 50 -14 22 -11 44
-20 48 -20 4 1 -5 8 -22 16 -16 9 -41 23 -54 31 l-23 15 23 11 c25 13 37 37
19 37 -6 0 -8 -4 -5 -10 3 -5 -1 -10 -9 -10 -11 0 -16 10 -16 31 0 28 2 30 18
18 16 -13 16 -12 1 6 -17 20 -12 58 6 55 6 -1 13 9 16 22 6 23 6 23 19 -5 11
-22 15 -25 22 -13 4 8 4 27 -2 41 -9 24 -6 35 26 82 37 56 42 84 7 39 -14 -17
-23 -22 -30 -15 -8 8 -13 7 -17 0 -4 -6 -2 -11 3 -11 6 0 11 -7 11 -15 0 -8
-7 -15 -15 -15 -23 0 -30 4 -27 15 2 6 6 21 8 35 20 109 109 360 129 360 7 0
18 6 24 14 9 10 8 15 -4 19 -12 5 -9 19 21 84 49 109 177 321 229 380 25 28
42 52 40 55 -3 3 7 15 22 29 25 22 26 22 9 2 -24 -29 -10 -30 21 -1 22 21 23
21 43 3 21 -19 22 -40 2 -40 -7 0 -11 -3 -9 -6 1 -3 -5 -14 -13 -24 -13 -17
-13 -18 0 -10 8 4 23 15 32 23 9 7 21 11 26 8 5 -3 9 0 8 8 -1 12 78 86 92 86
3 0 -12 -19 -35 -42z m3423 -24 c-5 -18 -2 -21 12 -17 10 2 27 -6 40 -20 l23
-25 -23 -18 c-13 -11 -28 -25 -32 -32 -7 -11 -4 -12 12 -3 12 6 24 16 27 21
11 17 33 11 41 -12 5 -16 0 -27 -19 -44 -16 -14 -22 -25 -16 -31 6 -6 6 -19 0
-35 -11 -28 -28 -42 -51 -43 -8 0 -14 -7 -13 -15 3 -18 -103 -115 -142 -130
-31 -12 -69 -4 -86 16 -9 11 -8 22 7 49 10 19 24 35 30 35 7 0 39 22 71 49 57
47 79 53 96 25 4 -8 13 -14 19 -14 7 0 0 13 -15 28 l-27 28 25 24 c28 27 32
52 10 70 -12 10 -18 10 -30 0 -21 -18 -19 -3 6 31 18 25 18 29 4 29 -9 0 -31
-15 -47 -32 -30 -32 -30 -33 -8 -38 20 -5 13 -14 -63 -84 -75 -70 -86 -84 -92
-122 -3 -24 -10 -46 -14 -49 -5 -2 -26 16 -47 42 l-38 46 45 38 c24 21 52 39
62 39 9 0 17 7 17 15 0 23 61 57 77 43 9 -7 13 -7 13 0 0 6 -5 14 -11 17 -7 5
-3 15 10 29 15 16 18 25 10 33 -14 14 7 57 23 47 6 -4 8 -3 4 4 -3 6 -2 13 4
17 6 3 13 -1 16 -9 10 -26 25 -18 18 10 -9 34 14 49 39 26 12 -10 16 -24 13
-38z m449 -44 c3 -5 2 -10 -4 -10 -5 0 -13 5 -16 10 -3 6 -2 10 4 10 5 0 13
-4 16 -10z m-3692 -17 c-7 -17 -6 -17 11 0 34 34 63 20 196 -92 116 -98 137
-138 104 -204 -51 -101 -126 -128 -209 -76 -64 41 -69 47 -54 66 13 16 12 17
-4 4 -15 -12 -21 -11 -45 10 -85 74 -112 105 -118 134 -9 50 27 117 86 158 31
22 41 22 33 0z m652 -2 c-3 -6 -11 -11 -17 -11 -6 0 -6 6 2 15 14 17 26 13 15
-4z m2335 -107 c0 -8 -19 -13 -24 -6 -3 5 1 9 9 9 8 0 15 -2 15 -3z m-80 -70
c0 -8 -19 -13 -24 -6 -3 5 1 9 9 9 8 0 15 -2 15 -3z m670 -184 c0 -4 -16 -18
-37 -30 -39 -23 -39 -23 -68 32 -8 15 -15 37 -15 50 0 13 -5 30 -11 38 -8 12
-10 9 -6 -12 2 -15 0 -25 -4 -22 -11 6 -69 -27 -69 -39 0 -5 14 -28 30 -52 35
-51 37 -61 11 -75 -26 -13 -31 -13 -31 4 0 8 -5 18 -11 21 -7 5 -9 -4 -5 -26
l5 -34 -23 28 c-15 18 -21 37 -18 53 2 13 0 24 -7 24 -5 0 -8 -8 -5 -17 4 -13
1 -12 -11 4 l-17 22 -39 -26 c-22 -14 -36 -30 -32 -37 3 -6 19 -30 35 -53 15
-23 28 -46 28 -51 0 -11 -69 -57 -74 -51 -15 19 -126 197 -126 203 0 9 182
127 188 121 3 -2 12 3 21 13 25 28 94 72 113 72 9 0 21 -7 26 -17 9 -15 11
-14 27 5 18 21 19 20 72 -60 29 -44 53 -84 53 -88z m-3011 39 l-12 -94 -67
-80 c-69 -82 -164 -221 -175 -255 -4 -11 -15 -20 -25 -20 -12 0 -17 -6 -14
-18 3 -9 -13 -63 -36 -120 -82 -205 -116 -405 -107 -632 9 -216 59 -418 151
-601 40 -81 42 -88 29 -114 -14 -25 -13 -26 4 -21 24 8 31 2 93 -79 131 -171
256 -290 410 -391 41 -27 77 -52 78 -56 2 -5 11 -8 20 -8 18 -1 52 -23 52 -33
0 -9 -53 -57 -63 -57 -4 0 -5 5 -1 11 4 8 0 8 -15 0 -11 -7 -21 -19 -20 -29 0
-9 3 -12 5 -5 3 7 11 10 19 7 7 -3 16 -1 20 5 3 6 12 11 18 11 14 0 -33 -40
-48 -40 -5 0 -27 15 -48 33 -34 31 -37 36 -27 61 13 35 13 46 0 46 -6 0 -10
-8 -8 -17 2 -12 -5 -19 -21 -21 -15 -2 -21 0 -17 7 4 6 0 11 -10 11 -15 0
-165 123 -172 141 -4 11 -32 12 -31 2 0 -7 70 -70 157 -140 15 -13 22 -23 16
-23 -6 0 -22 10 -36 23 -13 12 -36 28 -50 36 -37 19 -194 167 -187 175 4 4 21
-5 38 -19 17 -15 31 -24 31 -20 0 7 -46 50 -163 155 -92 83 -211 293 -272 480
-40 125 -78 304 -72 343 2 15 0 27 -4 27 -4 0 -7 29 -8 65 0 36 -2 69 -5 74
-3 4 -1 62 4 128 10 134 39 286 77 408 28 89 102 265 112 265 3 0 15 -20 27
-45 19 -42 21 -43 36 -25 14 16 15 20 2 31 -8 6 -14 17 -14 23 0 6 -6 23 -14
38 -13 25 -11 31 45 116 80 123 289 355 305 339 3 -2 -1 -47 -7 -98z m2191 66
c11 -14 7 -22 -29 -59 -55 -56 -37 -70 25 -20 l46 38 69 -74 c37 -41 68 -79
69 -85 0 -5 -13 -38 -30 -73 l-30 -63 -60 72 c-62 74 -68 87 -48 107 19 19 0
27 -20 9 -17 -16 -20 -15 -49 17 l-30 34 21 65 c22 68 32 73 66 32z m1149 -79
c137 -266 228 -585 261 -904 8 -85 7 -97 -11 -129 -18 -32 -18 -37 -5 -52 14
-15 13 -18 -5 -29 -15 -10 -19 -22 -17 -50 3 -32 6 -37 26 -34 14 2 22 -2 22
-11 0 -10 -7 -13 -20 -10 -23 6 -53 -15 -46 -32 6 -16 -11 -42 -21 -32 -4 5
-1 13 7 18 12 8 10 10 -7 6 -13 -3 -23 -1 -23 5 0 5 -4 7 -9 3 -6 -3 -10 31
-10 82 -1 191 -32 449 -71 605 -34 129 -109 336 -171 465 -61 127 -66 138 -49
128 6 -3 10 0 10 8 0 7 14 26 30 42 23 22 30 25 30 12 0 -8 5 -19 11 -23 9 -5
10 1 5 22 -12 46 7 19 63 -90z m-4026 38 c18 -9 35 -21 38 -26 3 -5 10 -9 15
-9 15 3 150 -78 173 -103 23 -24 29 -64 17 -104 -12 -37 -87 -162 -97 -162 -5
0 -18 5 -29 12 -19 12 -19 13 2 35 17 18 19 26 10 35 -8 8 -12 9 -12 1 0 -6
-8 -9 -19 -6 -11 3 -21 -2 -24 -11 -4 -9 -2 -16 3 -16 6 0 10 -4 10 -10 0 -7
-300 158 -320 177 -6 5 28 67 51 91 10 11 16 22 13 25 -3 3 12 23 34 46 44 46
80 53 135 25z m3166 -314 c155 -248 237 -535 242 -841 1 -78 -14 -121 -24 -70
-9 42 -27 40 -27 -3 0 -33 -23 -56 -36 -35 -3 5 -14 7 -23 4 -17 -5 -19 7 -24
142 -4 89 -14 187 -27 245 -36 171 -113 363 -199 496 -30 46 -39 67 -32 80 5
9 14 31 21 47 7 17 17 40 23 53 l11 23 18 -23 c10 -13 45 -66 77 -118z m580
126 c35 -19 55 -48 69 -105 14 -59 5 -82 -20 -50 l-20 24 18 -32 c20 -36 12
-53 -36 -78 -26 -13 -27 -13 -48 30 -19 39 -19 44 -5 49 10 4 29 -5 52 -26
l36 -33 -31 35 c-26 28 -31 41 -27 68 5 29 3 32 -20 32 -30 0 -57 -24 -57 -51
0 -10 -3 -19 -7 -19 -5 0 -8 -22 -8 -49 0 -48 -25 -99 -51 -108 -14 -5 -44 94
-44 144 0 48 17 102 39 124 15 15 18 13 39 -25 13 -22 20 -32 17 -21 -14 43
-17 85 -7 85 6 0 14 -5 18 -12 5 -7 10 -4 15 10 10 26 38 28 78 8z m-3079 -52
c0 -31 -2 -35 -15 -24 -18 15 -19 32 -3 48 17 17 18 16 18 -24z m2244 -21 c25
-32 46 -60 46 -63 0 -3 -12 -12 -27 -20 -25 -14 -31 -13 -73 7 -25 12 -60 23
-77 23 -34 0 -42 13 -20 33 27 27 92 77 98 77 4 0 28 -26 53 -57z m575 -45
c12 -40 12 -43 -13 -61 -14 -10 -26 -27 -26 -38 0 -17 -3 -18 -21 -8 -17 8
-23 8 -29 -2 -6 -8 5 -19 33 -35 39 -21 64 -23 52 -5 -2 5 7 13 21 20 23 10
26 9 40 -24 26 -63 17 -75 -58 -75 -32 0 -47 7 -73 33 -52 52 -67 141 -31 186
14 18 67 51 82 51 6 0 16 -19 23 -42z m-2881 -81 c40 -41 41 -44 26 -65 -20
-29 -13 -39 10 -16 12 12 20 14 28 6 10 -10 39 -153 33 -161 -5 -4 -199 168
-203 180 -5 11 46 99 56 99 4 0 27 -19 50 -43z m2237 12 c38 -19 56 -71 62
-185 6 -95 -8 -168 -48 -245 l-18 -37 42 -16 c24 -9 47 -16 52 -16 11 0 105
138 126 183 l12 27 22 -20 c13 -12 30 -39 40 -60 l18 -40 -37 -112 c-43 -130
-122 -298 -163 -347 l-29 -34 -76 18 c-43 10 -75 22 -72 27 3 4 2 8 -3 8 -11
0 -148 119 -148 128 0 4 -24 26 -55 49 -98 74 -119 98 -148 169 -48 115 -139
252 -216 323 -21 20 -23 27 -14 45 15 31 70 86 84 86 15 0 174 -118 174 -129
0 -5 11 -20 24 -34 38 -41 70 -117 74 -179 4 -53 6 -58 28 -58 13 0 24 -5 24
-12 0 -7 5 -5 13 4 6 9 21 18 32 20 40 7 93 322 66 399 -10 29 -9 36 6 47 21
16 86 11 128 -9z m233 -144 l32 -65 -76 -35 c-41 -19 -77 -35 -80 -35 -2 0 -4
35 -4 78 l0 78 38 22 c20 12 42 22 47 22 6 0 25 -29 43 -65z m812 32 c0 -5 -5
-5 -12 -1 -7 4 -2 -6 10 -23 12 -17 22 -35 22 -40 0 -4 -62 -28 -137 -51 -129
-41 -137 -42 -147 -25 -6 10 -11 25 -13 33 -1 8 -6 16 -12 18 -5 2 -7 10 -4
17 5 15 206 85 242 85 11 0 23 5 27 11 6 11 24 -6 24 -24z m-4121 -33 l12 -47
35 34 34 33 32 -32 32 -32 -33 -33 -32 -34 44 -12 c40 -9 45 -14 40 -33 -10
-42 -35 -60 -71 -54 l-33 5 6 -44 7 -43 -38 -11 c-46 -13 -52 -9 -60 34 -3 19
-9 35 -12 35 -3 0 -18 -12 -33 -26 l-27 -26 -37 27 -36 28 31 32 c16 17 30 34
30 37 0 6 -59 22 -72 19 -11 -1 -10 17 2 61 10 35 12 36 43 27 52 -15 57 -13
46 23 -5 18 -9 38 -9 44 0 10 42 27 81 33 4 1 12 -20 18 -45z m3822 -84 l17
-49 -52 -17 c-28 -9 -56 -19 -62 -21 -12 -4 -48 86 -38 96 6 7 94 39 109 40 6
0 17 -21 26 -49z m-3126 20 c10 -11 29 -20 42 -20 13 0 31 -9 40 -20 10 -11
23 -20 29 -20 7 0 21 -11 32 -25 11 -14 25 -25 31 -25 17 0 13 -37 -4 -44 -8
-3 -15 -10 -15 -16 0 -6 5 -8 10 -5 6 3 10 0 10 -7 1 -7 11 0 25 16 l23 29 37
-29 c24 -19 46 -50 60 -87 13 -31 22 -57 19 -57 -8 0 -169 103 -175 112 -3 5
-9 9 -13 8 -14 -3 -216 125 -216 138 0 18 29 72 39 72 4 0 16 -9 26 -20z
m-1165 -70 c0 -5 -4 -10 -10 -10 -5 0 -10 5 -10 10 0 6 5 10 10 10 6 0 10 -4
10 -10z m4620 -18 c47 -47 62 -129 34 -187 -25 -54 -134 -91 -134 -46 0 10 -3
32 -6 48 -5 27 -3 30 28 39 25 7 34 16 36 36 4 36 -16 40 -115 23 -47 -8 -87
-15 -89 -15 -2 0 -4 8 -4 18 0 10 -5 23 -12 30 -7 7 -8 12 -4 12 5 0 3 7 -4
15 -7 9 -11 18 -8 20 10 11 137 33 191 34 52 1 62 -2 87 -27z m-284 -57 c19
-51 19 -50 -19 -59 -21 -5 -29 -2 -34 11 -3 10 -15 29 -25 43 -18 23 -18 25
-2 37 36 26 61 16 80 -32z m-77 -43 c13 -31 37 -83 53 -115 16 -32 27 -64 25
-71 -6 -14 -94 -32 -105 -22 -3 4 0 12 6 18 17 17 15 38 -3 32 -8 -4 -15 -2
-15 4 0 5 8 13 17 16 15 6 14 8 -5 21 -40 29 -53 123 -21 162 18 21 22 16 48
-45z m-3061 -40 c67 -34 122 -67 122 -73 0 -6 4 -8 9 -5 5 4 16 3 25 0 12 -5
13 -10 5 -25 -5 -10 -16 -19 -24 -19 -7 0 -15 -5 -17 -12 -3 -7 -51 7 -141 43
-115 45 -137 57 -137 75 0 28 20 86 29 82 4 -2 62 -31 129 -66z m2442 9 c0
-13 -26 -32 -33 -24 -8 7 11 33 24 33 5 0 9 -4 9 -9z m814 -17 c3 -9 9 -39 12
-68 l6 -53 -53 -10 c-60 -12 -69 -10 -69 15 0 10 -7 28 -16 41 -14 19 -14 25
-3 32 25 16 49 9 61 -16 11 -25 28 -34 28 -15 0 6 -6 26 -14 45 -8 18 -12 36
-8 39 12 12 50 5 56 -10z m-565 -45 c-18 -11 -19 -8 -12 20 5 21 7 21 16 6 6
-12 5 -20 -4 -26z m-1275 -41 c-3 -13 -7 -23 -8 -24 -8 -6 -184 -28 -224 -28
-37 0 -51 -3 -48 -12 7 -18 -145 -78 -157 -62 -6 10 -7 9 -4 -2 2 -10 -15 -26
-52 -46 l-55 -32 -13 25 c-7 14 -13 29 -13 34 0 14 132 77 229 109 101 34 222
58 299 59 51 1 53 0 46 -21z m56 3 c15 -28 13 -31 -20 -31 -31 0 -35 6 -24 34
8 22 31 20 44 -3z m195 -9 c39 -9 68 -21 65 -27 -2 -5 -11 -9 -19 -7 -8 2 -59
7 -114 10 -90 6 -101 9 -116 31 l-16 24 65 -6 c36 -4 97 -15 135 -25z m-1388
-40 c57 -29 77 -45 92 -75 10 -20 17 -37 15 -37 -9 0 -240 94 -247 100 -7 6
49 50 63 49 3 0 38 -17 77 -37z m-298 -38 c80 -25 147 -47 149 -48 4 -5 -20
-66 -26 -66 -4 0 -72 15 -152 34 -116 26 -145 36 -144 49 0 10 1 31 2 47 1 17
7 30 14 30 6 0 77 -21 157 -46z m2032 -36 c10 -18 8 -19 -13 -13 -37 12 -54
47 -18 38 11 -3 25 -14 31 -25z m-2631 -50 c0 -40 -3 -90 -6 -110 -6 -36 -9
-38 -42 -38 -34 0 -35 0 -30 38 l5 37 -144 2 c-80 1 -147 4 -150 6 -2 3 -1 22
3 42 l7 37 61 -2 c33 -1 96 -2 139 -1 l78 1 6 30 c5 26 10 30 39 30 l34 0 0
-72z m3345 50 c2 -13 6 -43 7 -68 l3 -44 -40 -8 c-42 -7 -135 -11 -135 -4 0 2
13 33 30 69 30 67 39 74 97 76 26 1 34 -3 38 -21z m765 -32 l0 -54 -92 -32
c-51 -17 -101 -32 -110 -32 -10 1 -18 -3 -18 -9 0 -5 26 -10 58 -10 31 -1 49
-3 39 -6 -9 -2 -15 -8 -12 -13 6 -10 36 -2 45 11 3 5 24 11 47 15 40 6 40 6
45 -27 10 -67 6 -69 -103 -69 -87 0 -99 2 -109 19 -5 11 -7 28 -4 38 5 15 4
15 -4 3 -9 -12 -15 -12 -47 3 -43 21 -45 21 -45 3 0 -8 -7 -16 -15 -20 -8 -3
-15 -11 -15 -18 0 -9 3 -8 10 2 8 13 10 12 10 -3 0 -14 5 -17 21 -12 23 7 69
-1 69 -13 0 -4 -47 -8 -104 -9 -115 -3 -116 -3 -116 74 0 34 -5 31 155 88 l70
25 -110 -3 -110 -2 -3 47 -3 47 30 -12 c32 -12 55 -2 31 13 -10 6 59 10 188
10 l202 0 0 -54z m-3231 -20 c80 -25 105 -48 72 -66 -26 -13 -31 -13 -31 4 0
21 -20 30 -33 17 -14 -14 -54 -14 -62 -1 -4 6 -10 8 -15 5 -14 -9 -39 6 -34
21 16 53 6 51 103 20z m559 -25 l21 -29 -41 -27 c-32 -22 -42 -24 -49 -13 -16
25 -10 65 14 81 30 21 30 21 55 -12z m1233 7 c19 -6 38 -17 42 -25 5 -7 13
-11 18 -7 14 8 146 -102 135 -113 -2 -3 -12 0 -23 6 -10 5 -33 14 -50 20 -31
9 -33 9 -33 -16 0 -23 2 -24 17 -12 10 8 14 9 10 2 -4 -6 -3 -14 3 -18 5 -3
10 -1 10 4 0 6 7 11 15 11 8 0 15 -5 15 -11 0 -6 6 -9 13 -6 7 3 21 -1 31 -8
16 -13 15 -16 -24 -44 -23 -17 -56 -33 -74 -36 -17 -2 -138 -6 -268 -7 l-238
-3 -11 29 c-7 15 -12 34 -12 42 0 8 -4 14 -9 14 -16 0 46 72 86 102 47 34 66
36 66 6 0 -20 1 -21 20 -3 18 16 23 17 48 5 15 -8 43 -15 62 -17 22 -3 44 -14
58 -30 19 -21 26 -24 33 -12 5 8 9 18 9 22 0 5 10 6 23 2 19 -5 20 -5 4 5 -9
6 -26 9 -36 5 -11 -3 -28 4 -45 20 -15 14 -31 25 -37 25 -16 0 -18 0 -58 15
-22 7 -42 11 -45 8 -3 -4 -6 -1 -6 5 0 5 12 15 28 20 38 14 182 14 223 0z
m-2076 -59 c67 -10 75 -13 55 -21 -14 -5 -41 -11 -61 -13 -34 -2 -88 -24 -61
-25 21 0 13 -20 -9 -20 -11 0 -18 4 -15 9 3 5 -15 6 -39 3 l-45 -5 0 48 0 48
48 -7 c26 -3 83 -11 127 -17z m-1165 -37 c0 -2 -12 -16 -27 -29 -27 -24 -27
-24 -5 -18 17 5 27 2 37 -11 18 -26 9 -36 -25 -29 -21 5 -31 2 -40 -12 -9 -15
-10 -13 -6 15 4 20 2 31 -4 27 -15 -9 -12 5 5 21 8 9 15 20 15 26 0 6 -6 6
-15 -2 -12 -10 -15 -10 -15 2 0 11 11 15 40 15 22 0 40 -2 40 -5z m1228 -14
c-19 -28 -50 -34 -67 -14 -11 13 -7 17 21 25 56 16 63 14 46 -11z m127 14
c-19 -13 -15 -30 5 -25 11 3 34 0 50 -7 27 -11 32 -11 44 6 13 17 14 16 9 -9
-5 -24 -10 -27 -42 -26 -63 1 -127 14 -113 22 6 5 12 17 12 28 0 13 7 19 23
19 12 0 18 -4 12 -8z m-1311 -10 c3 -5 -1 -9 -9 -9 -8 0 -12 4 -9 9 3 4 7 8 9
8 2 0 6 -4 9 -8z m4926 -8 c0 -8 -4 -12 -10 -9 -5 3 -10 10 -10 16 0 5 5 9 10
9 6 0 10 -7 10 -16z m-4410 -43 c0 -5 3 -23 6 -40 6 -30 5 -31 -27 -32 -45 -1
-73 -11 -76 -26 -2 -7 5 -13 15 -13 14 -1 13 -4 -7 -20 -26 -22 -46 -26 -35
-7 6 10 4 10 -7 0 -16 -15 -99 -17 -99 -3 0 6 17 10 38 11 37 1 99 16 73 18
-8 1 -19 7 -25 15 -9 12 -28 13 -105 5 -52 -5 -96 -7 -98 -6 -1 2 -5 20 -7 40
-5 33 -3 37 17 38 12 0 83 6 157 13 178 17 180 17 180 7z m-506 -37 c5 -12 2
-15 -10 -10 -8 3 -18 6 -20 6 -3 0 -2 5 1 10 9 15 22 12 29 -6z m3864 1 c1 -1
-1 -30 -5 -65 l-6 -63 -116 8 c-64 5 -126 8 -138 9 -13 1 -22 3 -20 6 1 3 11
28 22 57 l19 52 66 3 c58 3 171 -2 178 -7z m137 -7 c12 -12 7 -90 -6 -99 -11
-7 -9 -10 9 -15 17 -5 22 -14 22 -40 0 -19 -4 -34 -10 -34 -5 0 -7 -7 -4 -15
4 -8 2 -15 -4 -15 -6 0 -13 6 -15 13 -3 7 -6 5 -6 -5 -1 -12 -6 -15 -17 -11
-8 3 -13 11 -10 18 5 15 -21 29 -29 15 -3 -4 1 -11 7 -13 7 -3 4 -6 -7 -6 -11
0 -27 4 -35 9 -12 8 -13 13 -3 29 7 11 11 26 8 33 -2 7 0 29 4 48 l9 35 1 -38
c1 -24 5 -36 12 -32 6 4 7 19 3 38 -13 57 -12 88 2 83 7 -3 16 -2 18 3 6 9 42
8 51 -1z m-4014 -18 c25 -14 27 -70 2 -71 -15 0 -15 -2 2 -9 16 -7 14 -9 -15
-9 -19 0 -44 7 -55 16 -19 15 -19 15 8 9 21 -5 28 -3 25 6 -3 7 -11 13 -19 13
-24 0 -22 20 3 27 13 3 17 6 11 7 -19 1 -16 21 3 21 8 0 24 -5 35 -10z m1094
-35 c0 -23 -7 -33 -29 -43 -39 -19 -101 -2 -110 31 -12 46 -10 48 66 45 l73
-3 0 -30z m3751 -14 c-15 -24 -36 -11 -36 21 l0 32 21 -21 c12 -11 18 -26 15
-32z m64 24 c0 -8 -4 -15 -10 -15 -5 0 -10 7 -10 15 0 8 5 15 10 15 6 0 10 -7
10 -15z m-863 -42 c-3 -10 -5 -4 -5 12 0 17 2 24 5 18 2 -7 2 -21 0 -30z m893
-10 c0 -53 -21 -208 -30 -223 -6 -10 -19 -7 -53 10 -26 13 -44 27 -41 32 3 5
0 7 -7 6 -9 -2 -12 9 -11 37 2 30 11 47 34 69 l31 28 -30 -6 c-29 -7 -30 -5
-25 19 3 20 9 24 21 19 9 -4 33 -9 54 -12 36 -4 37 -3 37 27 0 17 5 31 10 31
6 0 10 -17 10 -37z m-4665 -13 c4 -6 -7 -10 -25 -10 -18 0 -29 4 -25 10 3 6
15 10 25 10 10 0 22 -4 25 -10z m160 -9 c-12 -12 -143 -27 -133 -16 4 4 34 10
65 12 32 3 60 6 62 9 2 2 7 4 10 4 3 0 1 -4 -4 -9z m-15 -31 c-8 -5 -28 -9
-45 -9 -29 1 -29 1 -5 9 14 4 34 8 45 9 16 1 17 -1 5 -9z m-85 -10 c4 -6 -12
-9 -42 -9 l-48 2 40 7 c22 4 41 8 42 9 1 0 5 -3 8 -9z m839 -26 c3 -9 6 -27 6
-40 0 -23 -3 -24 -63 -24 -51 0 -64 -3 -75 -20 -7 -11 -18 -20 -26 -20 -13 0
-42 77 -33 87 5 5 139 30 168 32 9 1 20 -6 23 -15z m-1249 -4 c-3 -6 1 -7 10
-4 10 4 22 -1 30 -12 8 -11 14 -14 15 -6 0 15 32 16 48 0 7 -7 12 -20 12 -29
0 -13 -6 -16 -22 -11 -20 5 -21 3 -11 -10 19 -22 8 -26 -44 -17 -54 11 -76 32
-37 37 21 3 23 6 13 18 -14 17 -33 19 -23 2 4 -6 3 -8 -4 -5 -12 8 -4 47 10
47 5 0 6 -4 3 -10z m528 -41 c10 -15 21 -47 24 -71 7 -61 -23 -95 -88 -103
l-46 -5 -13 60 c-13 63 -18 66 -64 47 -28 -12 -28 -13 -11 -30 17 -17 16 -18
-11 -11 -54 13 -64 31 -43 78 17 37 104 66 188 63 35 -2 48 -8 64 -28z m3980
10 c5 -20 3 -21 -31 -16 -34 6 -35 5 -18 -8 11 -8 23 -15 28 -15 4 0 4 -8 1
-17 -6 -16 -5 -16 11 -4 12 10 20 11 24 4 4 -6 18 -11 32 -10 14 0 37 -3 53
-7 16 -5 27 -4 27 2 0 5 -18 12 -40 16 -37 6 -40 8 -30 26 15 28 30 25 64 -11
26 -27 28 -32 13 -40 -9 -5 -22 -15 -29 -22 -7 -7 -28 -22 -47 -34 -32 -19
-38 -20 -70 -8 -20 7 -53 16 -74 20 -33 5 -36 8 -23 20 20 20 62 24 58 6 -2
-11 0 -12 11 -3 8 7 16 10 18 8 2 -2 19 -6 37 -9 53 -11 28 10 -36 28 -58 17
-72 28 -72 56 0 11 14 20 43 26 23 6 43 11 43 12 1 0 4 -9 7 -20z m-746 -15
c67 -10 128 -21 134 -25 9 -5 8 -21 -4 -64 -9 -32 -18 -59 -19 -60 -3 -4 -226
42 -248 51 -8 3 -28 7 -44 10 -43 5 -66 14 -66 25 0 21 85 89 105 85 11 -2 75
-12 142 -22z m249 6 c8 0 14 -10 14 -25 0 -14 5 -25 10 -25 6 0 10 7 10 15 0
16 18 19 37 7 10 -6 9 -22 -5 -72 -17 -63 -19 -65 -49 -66 -18 0 -36 -3 -39
-7 -4 -4 -23 -7 -42 -7 -29 0 -33 3 -27 18 4 9 17 52 29 95 15 55 25 76 34 72
8 -3 20 -5 28 -5z m-3945 -122 c0 -10 2 -10 6 0 2 6 10 10 16 6 7 -3 4 1 -7
10 -10 8 -15 20 -11 26 4 7 16 1 32 -16 18 -19 34 -61 55 -138 15 -61 26 -116
24 -123 -3 -7 -2 -13 3 -13 4 0 27 -51 51 -112 100 -263 251 -522 412 -710 30
-36 46 -63 42 -70 -4 -7 -3 -9 1 -5 9 7 175 -150 175 -165 0 -8 -63 -68 -84
-80 -8 -4 -38 19 -79 60 l-67 67 25 55 c13 30 19 47 12 37 -7 -10 -21 -32 -33
-48 l-21 -29 -79 96 c-43 53 -116 150 -161 217 -95 140 -218 378 -209 403 3 9
-2 23 -13 32 -24 22 -65 127 -55 143 4 7 3 9 -3 6 -6 -4 -16 13 -23 41 -7 26
-21 74 -31 107 -10 33 -20 71 -23 85 -2 14 -9 47 -16 75 -10 46 -9 51 9 66 11
9 19 18 18 20 -1 2 6 -4 16 -13 9 -9 17 -23 18 -30z m4847 36 c18 -8 32 -20
32 -25 0 -5 7 -9 15 -9 10 0 15 -10 15 -27 0 -29 -63 -280 -73 -289 -3 -3 -22
-1 -44 5 -21 6 -47 11 -58 10 -20 -1 3 -8 68 -23 16 -4 25 -11 21 -17 -3 -6
-12 -8 -20 -5 -7 3 -16 1 -19 -3 -3 -5 2 -11 10 -15 20 -7 19 -33 -2 -45 -11
-6 -13 -11 -5 -11 7 0 10 -5 7 -10 -4 -6 -11 -8 -16 -5 -5 4 -6 -6 -4 -22 6
-31 0 -42 -31 -60 -19 -10 -21 -10 -17 7 3 11 11 25 19 31 8 6 14 16 14 22 0
6 -12 0 -27 -14 -29 -25 -48 -29 -71 -15 -7 4 -16 5 -19 2 -4 -3 -1 -6 5 -6 7
0 12 -4 12 -10 0 -5 -7 -10 -15 -10 -21 0 -20 6 21 111 20 52 45 123 56 159
22 74 47 99 98 100 l35 1 -34 14 c-44 20 -51 19 -51 -5 0 -11 -4 -20 -9 -20
-11 0 16 124 29 128 5 2 6 19 3 38 -7 39 5 43 55 18z m-3622 -47 c1 -35 -1
-38 -55 -63 -83 -38 -101 -37 -117 8 -12 35 -11 39 7 49 15 7 24 7 34 -1 10
-9 23 -4 56 20 55 39 74 36 75 -13z m-916 13 c0 -5 -4 -10 -10 -10 -5 0 -10 5
-10 10 0 6 5 10 10 10 6 0 10 -4 10 -10z m-64 -18 c-2 -4 13 -7 35 -6 34 0 39
-2 39 -23 0 -42 -77 -27 -93 19 -3 9 -3 19 0 22 8 7 25 -3 19 -12z m4119 3
c58 -20 74 -28 69 -37 -3 -5 -12 -4 -21 3 -8 7 -42 14 -76 14 -50 2 -63 5 -65
19 -3 14 3 16 35 12 21 -2 47 -7 58 -11z m211 -2 c16 -6 16 -7 -2 -14 -16 -6
-15 -8 9 -8 15 -1 27 -6 27 -12 0 -7 -10 -9 -26 -5 -15 4 -39 10 -55 13 -29 5
-35 13 -22 26 8 9 46 9 69 0z m-1089 -65 c85 -27 95 -32 73 -40 -17 -5 -11 -6
23 -3 27 3 47 0 47 -5 0 -6 10 -10 23 -10 12 0 28 -4 36 -9 10 -6 1 -11 -28
-16 -23 -4 -40 -9 -37 -12 2 -3 30 1 60 8 31 7 59 10 62 7 5 -6 -53 -128 -61
-128 -3 0 -45 16 -95 36 -55 22 -87 40 -83 47 4 6 1 8 -8 5 -8 -3 -34 3 -59
12 -46 18 -44 22 14 35 50 11 23 13 -34 3 -48 -9 -62 -8 -99 8 l-42 19 48 37
c26 20 51 37 55 37 4 1 52 -13 105 -31z m1021 26 c31 -9 28 -20 -5 -18 -49 3
-53 4 -53 14 0 11 24 13 58 4z m73 -24 c24 -13 25 -30 2 -30 -15 0 -16 2 -3
10 12 8 11 10 -7 10 -13 0 -23 5 -23 10 0 13 6 13 31 0z m-714 -6 c-3 -3 -12
-4 -19 -1 -8 3 -5 6 6 6 11 1 17 -2 13 -5z m78 -24 c-3 -5 -15 -10 -26 -10
-10 0 -19 5 -19 10 0 6 12 10 26 10 14 0 23 -4 19 -10z m-2035 -11 c0 -6 -14
-24 -30 -39 -17 -16 -26 -31 -21 -35 14 -8 2 -35 -14 -35 -8 0 -23 -12 -34
-26 -19 -24 -20 -28 -5 -39 14 -9 14 -16 5 -33 -9 -18 -21 -22 -58 -22 -35 0
-43 3 -36 13 5 6 36 57 68 112 33 55 64 103 70 107 16 12 55 9 55 -3z m1970 1
c0 -5 -14 -10 -31 -10 -17 0 -28 4 -24 10 3 6 17 10 31 10 13 0 24 -4 24 -10z
m42 -111 c-43 -93 -123 -225 -187 -309 -74 -96 -187 -211 -202 -206 -8 4 -17
-4 -23 -19 -12 -32 -105 -104 -243 -188 -115 -70 -155 -81 -149 -39 2 14 -2
22 -11 22 -13 0 -64 47 -56 52 2 2 31 17 64 33 204 102 431 300 553 483 26 39
38 49 45 40 6 -9 7 -8 3 4 -3 10 14 53 40 100 25 46 49 90 53 98 10 20 145 41
149 24 2 -6 -14 -49 -36 -95z m-3284 76 c18 -39 17 -41 -44 -75 -53 -30 -61
-31 -112 -23 l-56 8 90 57 c49 32 94 58 100 58 6 0 16 -11 22 -25z m641 -17
l24 -27 -29 -13 c-16 -7 -36 -20 -44 -29 -8 -10 -27 -25 -42 -34 l-27 -17 -23
46 c-12 25 -20 47 -17 50 15 14 125 63 129 58 3 -4 16 -19 29 -34z m3116 32
c-3 -5 -12 -7 -19 -4 -9 3 -13 -1 -13 -12 1 -9 -4 -19 -10 -21 -8 -3 -13 4
-13 15 0 21 12 30 43 31 10 1 16 -3 12 -9z m39 -2 c-5 -7 -3 -8 7 -2 18 11 72
5 81 -10 14 -21 8 -34 -19 -39 -16 -3 -37 -9 -47 -13 -15 -6 -18 -4 -14 7 3 8
0 23 -8 34 -17 23 -18 35 -3 35 5 0 7 -5 3 -12z m-2439 -52 c-15 -74 -20 -79
-50 -46 -16 18 -17 25 -6 60 11 37 13 39 37 28 21 -10 24 -16 19 -42z m1212
-7 c39 -24 34 -38 -18 -43 -19 -2 -42 -7 -52 -11 -15 -6 -94 21 -85 30 5 5
101 43 112 44 5 1 24 -9 43 -20z m-1123 1 c26 -10 34 -38 20 -74 -9 -24 -64
-21 -64 3 0 22 11 81 16 81 1 0 14 -4 28 -10z m-661 -37 c18 -65 18 -73 -2
-73 -11 0 -23 5 -26 10 -3 6 -15 10 -26 10 -28 0 -23 25 9 49 33 25 39 26 45
4z m783 1 c21 -6 34 -52 49 -176 3 -21 6 -42 7 -47 2 -5 -12 -23 -31 -40 -38
-34 -34 -42 6 -11 15 11 28 19 30 17 5 -5 32 -151 29 -155 -2 -1 -20 5 -41 13
-55 23 -53 13 5 -23 44 -27 50 -35 50 -64 0 -23 -7 -38 -21 -48 -11 -8 -35
-25 -52 -38 l-32 -23 -3 62 c-2 34 -1 64 2 67 3 2 19 -1 36 -8 46 -19 48 -4 2
19 -23 11 -43 25 -46 30 -4 5 -9 60 -12 123 -3 62 -7 131 -9 153 -16 166 -17
162 31 149z m-1511 -51 c8 -20 13 -38 10 -41 -3 -3 -49 -32 -103 -65 -53 -32
-90 -57 -81 -54 28 9 184 58 200 63 15 4 39 -32 39 -60 0 -14 -102 -42 -118
-32 -6 3 -12 1 -14 -4 -3 -9 -174 -59 -204 -60 -10 0 -44 61 -44 79 0 5 43 33
94 62 52 29 94 54 93 56 -2 1 -45 -11 -97 -27 -52 -16 -101 -30 -107 -30 -11
0 -43 60 -43 79 0 3 16 16 35 29 25 16 50 22 90 22 55 0 73 -13 34 -25 -11 -4
-19 -8 -17 -10 3 -4 109 23 173 44 44 14 43 14 60 -26z m1670 16 c7 -7 5 -13
-5 -19 -13 -8 -13 -10 2 -10 9 0 21 -12 26 -27 5 -16 13 -36 17 -45 5 -13 2
-18 -9 -18 -9 0 -16 -4 -16 -9 0 -4 -11 -6 -25 -4 -20 4 -27 16 -40 62 -9 31
-19 65 -22 75 -5 17 -1 18 28 12 18 -3 38 -11 44 -17z m574 12 c9 -6 10 -11 2
-15 -18 -12 -1 -27 21 -20 15 4 18 3 13 -6 -4 -6 -18 -10 -31 -7 -13 2 -24 0
-24 -5 0 -5 -12 -8 -27 -6 -17 2 -27 8 -25 17 2 8 -3 11 -11 8 -14 -5 -37 10
-37 24 0 7 32 13 85 17 11 1 26 -2 34 -7z m529 -74 l143 -73 -42 -53 c-29 -37
-47 -51 -60 -48 -27 7 -249 148 -249 158 0 5 -6 9 -14 9 -17 0 -76 32 -76 41
0 8 99 37 130 37 14 1 89 -32 168 -71z m-1502 15 c-3 -9 -14 -55 -26 -102 -29
-121 -24 -113 -67 -93 -21 10 -40 19 -42 20 -4 3 31 103 61 175 l20 47 30 -15
c20 -10 27 -21 24 -32z m548 33 c-4 -9 0 -15 10 -15 20 0 47 -52 37 -69 -5 -8
-17 -11 -30 -6 -13 4 -21 2 -21 -5 0 -7 -6 -5 -16 4 -9 10 -13 24 -9 36 5 14
2 18 -8 15 -8 -4 -18 5 -25 20 -16 36 -17 35 28 35 31 0 38 -3 34 -15z m218
-12 c20 -20 20 -20 -28 -32 -46 -12 -48 -11 -70 16 -13 15 -23 32 -24 37 0 17
101 -1 122 -21z m-1428 -32 c3 -4 0 -16 -8 -26 -9 -12 -19 -15 -35 -10 -21 6
-22 8 -5 26 18 20 39 25 48 10z m795 -78 c-2 -74 -4 -80 -35 -111 -32 -32 -60
-39 -58 -14 1 7 2 21 3 32 0 11 9 21 19 21 16 1 15 2 -1 6 -14 4 -17 11 -13
31 3 15 8 46 11 70 6 40 8 42 41 42 l35 0 -2 -77z m945 69 c3 -5 -17 -16 -44
-24 -38 -12 -47 -13 -43 -2 8 22 77 42 87 26z m1248 -51 c-2 -17 -9 -31 -14
-31 -5 0 -7 -4 -4 -9 4 -5 0 -11 -6 -14 -12 -4 -3 -9 67 -38 11 -4 28 -9 37
-11 15 -3 15 -5 2 -23 -14 -19 -17 -18 -104 25 -81 40 -89 46 -75 60 13 12 17
13 24 1 5 -7 13 -11 19 -7 14 9 12 54 -4 60 -22 8 -16 25 6 19 11 -3 20 0 20
6 0 8 5 9 18 2 14 -7 18 -18 14 -40z m-2932 19 c0 -5 -4 -10 -10 -10 -5 0 -10
5 -10 10 0 6 5 10 10 10 6 0 10 -4 10 -10z m191 -1 c45 -16 45 -16 25 -37 -15
-18 -20 -18 -62 -4 -43 14 -44 15 -28 33 20 22 21 22 65 8z m1207 0 l27 -1
-25 -8 c-40 -13 -57 -11 -57 5 0 10 6 14 14 10 8 -3 27 -5 41 -6z m-138 -66
c38 -54 40 -58 21 -61 -12 -2 -21 -10 -21 -17 0 -8 -9 -19 -20 -25 -17 -9 -22
-5 -45 41 -15 28 -24 53 -21 56 3 3 20 9 38 14 31 7 31 8 -11 6 -51 -2 -64 14
-24 30 16 6 31 11 35 12 4 1 25 -25 48 -56z m210 30 c17 -14 30 -32 30 -40 0
-7 6 -13 13 -14 13 -1 304 -307 308 -324 2 -9 -119 -81 -125 -73 -97 123 -126
163 -126 171 0 5 -11 20 -24 32 -37 34 -136 167 -136 182 0 8 -4 11 -10 8 -16
-10 -12 7 8 28 17 19 16 20 -6 8 -13 -7 -26 -10 -29 -8 -9 9 21 46 42 50 11 2
21 5 23 6 1 0 16 -11 32 -26z m432 -90 l160 -118 -48 -42 c-27 -24 -56 -43
-65 -43 -9 0 -87 64 -174 142 l-158 142 49 17 c27 10 55 18 62 18 8 1 86 -52
174 -116z m958 113 c0 -3 -4 -8 -10 -11 -5 -3 -10 -1 -10 4 0 6 5 11 10 11 6
0 10 -2 10 -4z m-2960 -26 c0 -5 -2 -10 -4 -10 -3 0 -8 5 -11 10 -3 6 -1 10 4
10 6 0 11 -4 11 -10z m503 -22 c-22 -39 -36 -44 -57 -22 -16 15 -14 17 16 34
52 28 63 25 41 -12z m665 -13 c-11 -9 -78 -14 -82 -6 -14 21 6 40 35 34 21 -4
29 -2 30 8 0 8 5 3 10 -10 5 -13 8 -25 7 -26z m-880 0 c1 -1 -6 -11 -15 -23
-10 -12 -38 -49 -63 -82 l-44 -60 -38 36 c-41 41 -40 49 10 97 25 24 33 27 50
18 25 -13 62 -14 62 -2 0 5 -7 11 -15 15 -8 3 -15 10 -15 15 0 8 53 -3 68 -14z
m127 -15 c3 -5 1 -10 -4 -10 -6 0 -11 5 -11 10 0 6 2 10 4 10 3 0 8 -4 11 -10z
m791 -71 c29 -75 26 -108 -11 -101 -9 2 -14 -1 -11 -6 3 -5 -3 -17 -14 -27
-23 -20 -20 -25 -49 83 -11 41 -23 82 -26 92 -4 14 0 20 17 23 63 12 65 11 94
-64z m-810 42 c5 -5 19 -12 32 -16 16 -5 22 -2 22 9 0 9 5 16 10 16 14 0 13
-11 -11 -68 -12 -29 -25 -50 -29 -47 -4 2 -13 -15 -20 -38 -7 -23 -21 -61 -32
-85 l-20 -42 -47 35 c-25 19 -45 40 -43 47 5 19 115 198 122 198 3 0 10 -4 16
-9z m2579 -32 c57 -30 59 -34 39 -68 -20 -34 -48 -34 -71 0 -8 10 -21 15 -32
12 -13 -3 -21 1 -25 14 -3 10 -4 2 -1 -18 3 -33 0 -38 -21 -42 -13 -2 -24 0
-24 4 0 5 7 9 15 9 8 0 15 4 15 10 0 5 -7 7 -15 4 -9 -4 -15 0 -15 10 0 9 8
16 18 17 11 0 12 2 4 6 -10 4 -10 8 -1 19 6 8 15 11 20 8 5 -3 9 1 9 10 0 14
13 24 35 25 6 1 28 -8 50 -20z m205 10 c0 -15 -19 -49 -28 -49 -17 1 -34 19
-27 30 6 9 9 9 16 -1 6 -10 9 -8 9 9 0 13 6 22 15 22 8 0 15 -5 15 -11z
m-3720 -35 c20 -18 29 -32 25 -44 -3 -10 1 -25 10 -33 20 -20 19 -29 -6 -61
-26 -33 -138 -96 -171 -96 -47 0 -105 85 -92 136 6 25 54 63 129 103 51 27 67
27 105 -5z m1380 2 c0 -55 -20 -69 -56 -41 -18 15 -18 16 11 40 37 31 45 31
45 1z m-240 -2 c22 -9 40 -21 40 -28 0 -6 -14 -71 -31 -144 -37 -151 -45 -160
-117 -123 l-41 21 50 141 c27 77 49 142 49 145 0 7 7 5 50 -12z m850 -27 c13
-23 23 -48 21 -56 -1 -7 2 -10 8 -6 6 3 14 -1 17 -9 3 -8 30 -52 60 -97 30
-46 54 -85 54 -89 0 -3 -17 -25 -39 -47 -35 -38 -36 -42 -18 -45 29 -4 32 -24
6 -31 -30 -8 -36 -3 -64 55 -23 48 -24 52 -7 64 12 9 21 9 30 2 9 -8 16 -8 24
0 8 8 7 13 -5 18 -9 3 -15 10 -12 14 3 4 -8 13 -24 18 -23 8 -31 7 -35 -3 -3
-8 -1 -17 4 -20 12 -8 13 -25 1 -25 -4 0 -36 54 -70 120 -59 116 -61 121 -45
144 8 14 25 27 37 29 12 2 24 5 27 6 3 0 16 -18 30 -42z m1934 -6 c-10 -9 -28
-25 -38 -36 -19 -20 -19 -20 -3 8 10 15 13 27 8 27 -6 0 -15 -9 -21 -21 -7
-11 -14 -19 -16 -16 -6 6 22 59 37 68 7 4 22 3 33 -3 19 -10 19 -11 0 -27z
m90 -4 c-4 -11 -28 -14 -68 -8 -17 2 8 19 34 23 31 5 40 1 34 -15z m-374 -27
c5 -10 10 -31 9 -47 0 -25 -1 -26 -10 -8 -8 17 -9 16 -6 -7 3 -22 0 -28 -14
-28 -11 0 -20 5 -20 10 -1 6 -2 14 -3 20 0 5 -10 15 -20 23 -12 9 -16 19 -11
27 7 11 10 9 17 -6 7 -16 8 -16 7 6 -2 48 0 51 21 40 11 -6 24 -19 30 -30z
m-2309 -10 c22 -12 37 -25 34 -30 -3 -5 -12 -7 -19 -4 -8 3 -25 -6 -39 -20
-36 -36 -51 -34 -43 5 3 17 6 40 6 50 0 24 11 24 61 -1z m-831 -32 c0 -6 -7
-5 -15 2 -8 7 -15 17 -15 22 0 6 7 5 15 -2 8 -7 15 -17 15 -22z m3014 23 c4
-5 1 -22 -4 -37 -10 -26 -11 -26 -24 -8 -13 17 -14 17 -9 -7 3 -16 11 -25 24
-25 12 0 18 5 15 13 -3 7 -2 13 2 13 11 0 106 -50 99 -51 -24 -5 -33 -3 -45 8
-18 18 -33 16 -26 -2 7 -18 -7 -20 -26 -2 -8 6 -6 2 4 -11 23 -26 14 -42 -11
-21 -10 8 -29 20 -43 27 -21 11 -25 20 -25 55 0 33 4 43 20 49 30 9 43 9 49
-1z m464 0 c12 -7 11 -14 -2 -40 -9 -17 -21 -31 -26 -31 -6 0 -10 -7 -10 -15
0 -18 -38 -95 -46 -95 -4 0 -3 11 0 25 7 27 -11 35 -20 10 -5 -12 -9 -13 -21
-4 -11 10 -9 17 16 41 20 20 29 38 29 58 -2 50 41 76 80 51z m-546 -31 c11
-25 9 -40 -7 -40 -15 0 -55 38 -55 53 0 14 54 3 62 -13z m-1631 -12 c10 -18 8
-24 -7 -36 -18 -13 -18 -14 2 -8 19 6 25 -4 61 -96 36 -92 39 -105 27 -125
-18 -30 -18 -38 2 -22 13 10 17 10 25 -2 19 -30 18 -30 -91 -33 l-45 -1 -29
107 c-24 89 -27 110 -16 123 12 14 16 13 42 -11 15 -15 28 -35 28 -45 0 -9 10
-19 22 -22 28 -8 34 -2 17 16 -8 8 -33 35 -57 61 -24 25 -50 46 -58 46 -17 0
-19 30 -1 30 6 0 23 9 37 20 31 24 27 24 41 -2z m-433 -64 c-2 -64 -3 -66 -43
-95 -22 -16 -43 -28 -47 -26 -4 1 -13 -7 -21 -17 -13 -18 -14 -17 -15 13 -1
40 30 96 52 95 9 -1 17 6 18 15 0 9 2 21 2 28 2 14 36 53 48 53 5 0 8 -30 6
-66z m-1239 -20 c-6 -8 0 -13 21 -17 37 -8 37 -16 -1 -46 -28 -22 -31 -22 -48
-7 -10 9 -21 16 -25 16 -4 0 -37 -22 -73 -50 -36 -27 -70 -50 -74 -50 -4 0
-16 12 -27 28 l-20 27 107 82 106 82 22 -27 c14 -18 18 -31 12 -38z m1142 4
c-14 -14 -21 -17 -21 -8 0 18 34 54 38 41 2 -6 -6 -20 -17 -33z m2109 24 l21
-17 -21 -28 c-17 -22 -25 -25 -40 -17 -27 15 -40 12 -40 -7 0 -20 101 -103
125 -103 19 0 19 29 0 50 -13 14 -13 19 0 36 12 15 16 16 24 5 7 -11 9 -11 13
0 3 8 4 -5 3 -29 -1 -28 -10 -51 -24 -66 -11 -12 -21 -27 -21 -33 0 -15 -29
-37 -37 -29 -4 4 -1 11 7 16 8 6 10 10 5 10 -6 0 -16 -5 -23 -12 -12 -12 -19
-7 -104 71 -37 34 -45 60 -32 95 3 9 10 13 15 10 5 -3 9 0 9 7 0 23 43 59 71
59 15 0 37 -8 49 -18z m-1655 -11 c3 -5 1 -12 -4 -15 -5 -3 -11 1 -15 9 -6 16
9 21 19 6z m-1417 -107 c-88 -83 -238 -214 -245 -214 -5 0 -19 11 -32 23 l-22
24 95 86 c57 54 102 87 116 87 13 0 19 4 14 11 -3 6 4 21 17 34 l24 23 28 -26
27 -26 -22 -22z m1310 -39 c5 -44 13 -89 18 -99 7 -18 4 -19 -60 -13 -37 4
-71 9 -77 12 -5 4 -8 32 -7 64 3 57 4 59 53 98 32 26 52 36 57 29 3 -6 11 -47
16 -91z m2158 84 c-8 -12 -12 -27 -9 -35 3 -8 -2 -17 -11 -20 -9 -3 -16 -15
-16 -25 0 -10 -7 -19 -15 -19 -20 0 -19 26 1 34 8 3 12 10 9 16 -3 6 4 23 17
40 26 33 47 41 24 9z m104 -16 c11 -4 10 -7 -7 -14 -14 -5 -21 -14 -17 -23 3
-8 0 -23 -6 -33 -10 -16 -11 -15 -6 6 4 22 -11 61 -25 61 -4 0 -5 -10 -2 -22
4 -19 3 -20 -6 -8 -9 13 -11 13 -11 -2 0 -9 -5 -20 -11 -23 -20 -13 -18 2 6
37 25 36 34 39 85 21z m-755 -13 c17 -18 17 -21 1 -45 -20 -30 -37 -32 -61 -5
-18 20 -18 21 5 45 28 30 32 30 55 5z m-1761 -66 c-9 -46 -36 -60 -92 -44 -23
6 -42 13 -42 15 0 3 28 26 62 51 69 50 85 46 72 -22z m1838 -9 c2 2 39 -31 81
-73 l77 -78 -28 -27 -28 -27 -94 95 -94 94 24 26 c25 26 25 26 41 6 9 -11 18
-18 21 -16z m-1002 -6 c0 -5 -14 -9 -31 -9 -17 0 -28 -4 -24 -10 3 -5 2 -10
-4 -10 -19 0 -23 21 -6 34 19 13 65 10 65 -5z m1294 -3 c-3 -9 -12 -16 -20
-16 -20 0 -17 28 4 32 22 5 24 4 16 -16z m291 -22 c-15 -19 -24 -38 -20 -42 4
-4 10 -2 12 4 2 6 10 20 18 30 11 15 14 16 14 4 1 -31 -203 -285 -220 -275 -5
4 -9 1 -9 -4 0 -25 -20 -9 -21 17 0 23 -2 24 -8 8 -5 -14 -10 -16 -15 -8 -4 7
-5 16 -2 20 2 4 -4 8 -15 8 -15 0 -12 -7 18 -38 l37 -38 -84 -85 c-46 -46 -86
-83 -88 -80 -2 2 -15 -9 -28 -24 -48 -57 -350 -274 -381 -274 -7 0 -13 -4 -13
-9 0 -5 -21 -19 -47 -31 -27 -13 -59 -30 -73 -39 -26 -17 -144 -70 -237 -107
-58 -23 -63 -10 -10 27 29 20 32 21 40 5 6 -15 7 -15 4 2 -2 11 2 26 10 33 7
7 13 18 13 25 0 8 -3 8 -8 2 -4 -6 -35 -32 -69 -58 -34 -26 -68 -54 -76 -61
-43 -44 -383 -118 -639 -141 -80 -7 -84 1 -35 55 17 20 10 14 -16 -13 l-49
-50 -180 6 c-184 6 -204 11 -190 45 3 10 1 13 -6 8 -13 -8 -53 24 -46 36 3 4
0 8 -5 8 -17 0 -13 -10 15 -47 l25 -33 -27 0 c-19 0 -25 4 -20 15 6 17 -9 21
-20 4 -8 -13 -61 -7 -184 22 -164 38 -162 37 -150 62 10 20 10 20 -3 5 -18
-22 -51 -23 -71 -2 -9 8 -20 13 -25 9 -11 -6 -91 23 -91 34 0 3 -10 7 -23 7
-59 4 -458 212 -525 274 -10 10 -28 23 -40 29 -23 12 -31 53 -10 48 7 -1 12 4
13 11 0 7 13 23 29 36 l30 23 84 -56 84 -56 -38 -11 c-40 -11 -58 -33 -27 -35
10 0 27 -2 38 -4 11 -2 23 1 27 8 6 9 8 9 8 -1 0 -10 4 -10 20 0 17 11 33 6
117 -36 150 -76 207 -100 348 -149 239 -83 449 -118 717 -120 98 -1 168 -6
168 -12 0 -5 5 -4 12 3 7 7 27 12 46 12 31 0 33 -2 21 -17 -13 -17 -12 -17 7
0 15 12 64 24 158 38 151 22 321 67 484 130 116 44 118 45 145 34 13 -5 17 -2
17 12 0 26 165 113 215 113 24 0 35 4 35 15 0 10 10 15 28 16 64 1 115 8 125
18 14 14 6 20 -26 23 -29 3 -31 6 -18 27 5 7 14 11 20 7 6 -4 9 -2 5 7 -3 8 2
20 11 27 8 7 15 10 15 8 0 -3 16 10 36 28 20 19 40 32 45 28 5 -3 8 -2 7 3 -2
4 20 28 47 52 28 25 87 81 133 125 45 44 82 77 82 72 0 -5 7 -3 15 4 9 7 14
19 11 26 -3 7 11 26 30 42 20 17 36 34 36 39 1 14 38 56 44 50 3 -3 1 -14 -5
-25 -15 -29 -14 -37 5 -21 14 11 16 10 14 -6 -5 -45 -3 -46 49 -36 2 1 -2 8
-9 16 -13 16 -7 45 10 45 5 0 10 -6 10 -14 0 -8 5 -18 11 -22 8 -4 9 1 4 16
-5 15 -4 20 4 16 6 -4 11 0 11 11 0 21 68 123 82 123 6 0 -2 -16 -17 -36z
m-72 18 c3 -4 -4 -18 -16 -32 -14 -17 -18 -19 -14 -7 4 10 7 25 7 33 0 15 16
19 23 6z m16 -41 c-11 -23 -25 -44 -31 -47 -5 -3 3 17 18 45 14 29 28 50 31
48 2 -3 -6 -23 -18 -46z m-2664 19 c-4 -6 5 -5 20 2 40 18 56 -5 19 -28 -16
-10 -35 -25 -42 -33 -10 -13 -14 -13 -21 -3 -6 10 -10 10 -21 -3 -14 -16 -50
-21 -50 -5 0 5 21 25 46 45 49 36 60 42 49 25z m2385 -20 c-24 -15 -31 -11
-18 10 9 13 16 16 23 9 7 -7 5 -13 -5 -19z m-3108 3 c10 -9 18 -25 18 -37 0
-17 5 -15 39 18 l39 38 26 -18 c14 -11 26 -22 26 -26 0 -10 -231 -258 -241
-258 -24 0 -13 22 32 61 29 24 60 51 70 60 18 16 26 39 13 39 -10 0 -63 -44
-106 -87 -42 -44 -65 -55 -54 -28 4 10 -1 15 -16 15 -31 0 -58 29 -58 61 0 20
18 48 60 98 33 38 66 72 73 74 25 11 61 6 79 -10z m1951 -7 c9 -13 32 -34 52
-46 19 -12 33 -26 30 -30 -6 -9 -95 -45 -142 -56 -26 -7 -27 -7 -10 10 16 16
23 36 12 36 -3 0 -20 -16 -38 -36 -27 -29 -41 -37 -73 -38 -21 0 -42 -4 -45
-9 -13 -17 -153 -39 -289 -44 l-144 -6 27 32 c27 32 36 58 17 46 -5 -3 -10
-11 -10 -17 0 -19 -42 -58 -62 -58 -10 0 -18 5 -18 11 0 8 -4 8 -13 1 -19 -16
-181 7 -339 49 -22 5 -38 16 -38 24 0 16 57 62 72 57 5 -1 7 2 3 8 -14 22 39
26 123 8 48 -10 149 -21 224 -24 96 -5 135 -10 131 -18 -5 -7 -2 -7 8 1 20 16
203 37 207 23 5 -15 30 -12 39 5 5 8 48 26 96 40 48 13 101 31 119 39 44 19
44 19 61 -8z m-1086 -3 c29 -9 53 -21 53 -27 0 -6 -23 -24 -50 -41 -27 -16
-50 -33 -50 -37 0 -5 -9 -8 -20 -8 -27 0 -102 31 -98 40 3 9 100 90 107 90 2
0 28 -8 58 -17z m1941 -80 c35 -38 72 -80 82 -94 l19 -26 -27 -26 -27 -26 -64
75 c-47 55 -70 74 -83 71 -10 -3 -18 -1 -18 4 0 16 -15 9 -29 -13 -13 -21 -13
-22 3 -9 10 8 20 10 24 5 5 -5 37 -42 72 -82 46 -53 60 -76 52 -84 -8 -8 -22
-1 -53 26 -26 24 -48 36 -59 33 -13 -3 -32 11 -64 48 l-45 52 24 23 c13 12 28
19 34 15 6 -3 11 1 11 10 0 21 45 65 67 65 9 0 46 -30 81 -67z m514 45 c-7 -7
-12 -8 -12 -2 0 14 12 26 19 19 2 -3 -1 -11 -7 -17z m-3008 -107 c13 -14 14
-21 5 -27 -8 -4 -10 -3 -5 4 11 18 -20 14 -39 -4 -9 -9 -19 -13 -23 -10 -3 4
-2 10 4 14 6 4 13 15 17 25 8 22 20 22 41 -2z m16 -51 c-10 -19 -30 -28 -30
-14 0 6 30 33 38 34 1 0 -2 -9 -8 -20z m-61 -86 c-27 -39 -32 -42 -49 -31 -24
14 -25 21 -5 37 13 11 15 10 9 -6 -5 -19 -5 -19 10 0 8 10 13 23 10 27 -3 5 2
6 10 3 10 -4 16 -1 16 10 0 9 6 13 15 10 12 -5 9 -15 -16 -50z m2218 14 c11
-13 28 -35 37 -50 l18 -27 -49 -30 c-26 -17 -52 -32 -57 -34 -14 -5 23 -54 46
-60 18 -5 20 -2 15 29 -5 30 -3 36 25 50 36 19 48 9 48 -42 0 -60 -101 -122
-150 -92 -23 14 -94 127 -86 135 3 3 -2 12 -10 20 -38 38 40 123 112 123 19 0
38 -8 51 -22z m292 -52 c-9 -10 -44 17 -60 47 -7 13 1 10 30 -10 23 -17 36
-32 30 -37z m-2382 23 c45 -17 73 -49 73 -84 0 -17 -3 -34 -6 -38 -12 -12 -63
23 -66 45 -4 28 -38 38 -38 12 0 -10 11 -34 25 -55 47 -67 38 -127 -22 -150
-71 -27 -173 69 -135 128 13 20 67 -18 67 -47 0 -16 6 -26 18 -28 22 -4 34 26
18 47 -45 62 -69 113 -39 83 23 -23 31 -12 9 12 -19 20 -21 28 -12 45 21 39
58 49 108 30z m-193 -28 c16 -18 14 -47 -2 -37 -4 2 -12 -7 -19 -20 -6 -14 -7
-21 -1 -18 11 7 -2 -19 -24 -48 -12 -17 -15 -17 -43 6 l-29 23 18 29 c22 34
67 84 76 84 4 0 15 -9 24 -19z m1929 -26 l19 -45 25 20 c34 26 70 25 94 -2 30
-34 78 -148 79 -185 0 -40 -36 -69 -75 -59 -17 4 -25 2 -25 -7 0 -14 -49 -42
-58 -33 -3 3 -37 77 -77 165 l-72 159 31 15 c42 21 39 23 59 -28z m-2351 -46
c-2 -18 0 -21 9 -12 9 9 24 2 65 -30 30 -23 54 -45 54 -49 0 -4 -10 -13 -22
-19 -12 -6 -33 -22 -47 -35 -14 -13 -29 -24 -34 -24 -15 0 -77 55 -77 68 0 6
-3 11 -7 10 -5 -1 -21 6 -36 16 l-28 19 22 23 c13 13 26 24 31 24 5 0 19 9 30
20 27 25 44 20 40 -11z m1162 -35 c0 -10 -3 -33 -7 -51 -6 -32 -6 -32 25 -26
l32 6 -37 -38 c-38 -39 -57 -86 -57 -142 0 -22 5 -33 14 -33 20 0 22 5 37 80
15 79 55 133 76 104 7 -10 13 -30 13 -45 0 -50 -32 -167 -51 -188 -23 -24 -71
-28 -89 -6 -6 8 -19 14 -28 13 -33 -2 -62 2 -62 10 0 4 14 22 31 40 l30 32
-25 0 c-15 0 -26 3 -26 8 0 10 49 244 54 258 3 8 16 9 38 5 24 -5 33 -12 32
-27z m-187 -21 c59 -27 61 -49 23 -171 -19 -59 -35 -109 -36 -110 -2 -2 -19 1
-38 8 -20 6 -34 15 -31 20 3 4 -12 6 -32 3 -52 -7 -83 20 -83 71 0 54 35 86
94 86 57 0 76 8 76 30 0 24 -21 31 -42 13 -11 -10 -27 -13 -47 -8 -41 9 -45
18 -20 49 25 31 81 35 136 9z m426 -13 c-1 -8 -9 -88 -19 -177 l-18 -163 -39
0 -39 0 7 67 c4 37 8 76 10 87 2 12 6 53 10 91 11 114 12 117 54 113 25 -2 35
-8 34 -18z m487 -21 c4 -25 10 -33 23 -31 9 2 17 -1 17 -5 0 -4 3 -18 6 -29 4
-15 0 -23 -13 -26 -18 -5 -19 -10 -10 -78 8 -57 14 -74 28 -77 24 -7 35 -43
18 -54 -22 -14 -76 -10 -92 6 -9 8 -18 27 -21 42 -5 27 -36 260 -36 274 0 8
46 17 65 14 6 -1 12 -17 15 -36z m253 -21 c15 -15 29 -52 42 -106 18 -82 18
-83 -2 -110 -23 -31 -84 -55 -119 -46 -33 8 -26 25 19 47 42 21 43 25 21 112
-13 51 -20 65 -35 65 -22 0 -23 -8 -7 -84 11 -56 10 -58 -15 -84 -17 -16 -30
-23 -36 -17 -15 17 -43 154 -37 180 15 59 126 86 169 43z m-1993 8 c0 -2 -24
-23 -52 -47 l-53 -43 45 47 c39 41 60 56 60 43z m1483 -77 c20 -25 22 -50 5
-68 -10 -11 -10 -13 0 -7 8 5 12 -1 12 -18 0 -25 -2 -26 -65 -26 l-65 0 0 -35
c0 -28 4 -35 19 -35 10 0 21 9 24 20 4 15 14 20 41 20 32 0 36 -3 36 -25 0
-42 -41 -75 -93 -75 -24 0 -50 6 -59 13 -9 7 -20 44 -27 92 -20 143 -15 160
52 174 44 10 99 -4 120 -30z m169 16 c3 -14 1 -25 -3 -25 -5 0 -9 11 -9 25 0
14 2 25 4 25 2 0 6 -11 8 -25z m1130 -17 c-7 -7 -12 -8 -12 -2 0 14 12 26 19
19 2 -3 -1 -11 -7 -17z m-1485 -185 c-3 -10 -5 -4 -5 12 0 17 2 24 5 18 2 -7
2 -21 0 -30z"/>
<path d="M3181 5580 c-40 -11 -77 -17 -82 -14 -5 3 -9 0 -9 -5 0 -6 11 -11 24
-11 13 0 26 -3 29 -7 2 -5 2 -3 1 4 -3 12 52 33 86 33 8 0 22 5 30 10 21 14 5
12 -79 -10z"/>
<path d="M3280 5562 c0 -12 3 -12 15 -2 8 7 15 13 15 15 0 1 -7 2 -15 2 -8 0
-15 -7 -15 -15z"/>
<path d="M3368 5553 c7 -3 16 -2 19 1 4 3 -2 6 -13 5 -11 0 -14 -3 -6 -6z"/>
<path d="M3328 5543 c7 -3 16 -2 19 1 4 3 -2 6 -13 5 -11 0 -14 -3 -6 -6z"/>
<path d="M3288 5533 c7 -3 16 -2 19 1 4 3 -2 6 -13 5 -11 0 -14 -3 -6 -6z"/>
<path d="M2975 5520 c4 -6 11 -8 16 -5 14 9 11 15 -7 15 -8 0 -12 -5 -9 -10z"/>
<path d="M3193 5513 c9 -2 23 -2 30 0 6 3 -1 5 -18 5 -16 0 -22 -2 -12 -5z"/>
<path d="M2890 5501 c0 -4 12 -6 26 -3 20 4 25 2 19 -8 -5 -9 -4 -11 4 -6 6 4
9 12 6 17 -8 11 -55 12 -55 0z"/>
<path d="M2855 5470 c-3 -5 -2 -10 4 -10 5 0 13 5 16 10 3 6 2 10 -4 10 -5 0
-13 -4 -16 -10z"/>
<path d="M3385 5419 c-4 -6 -5 -13 -2 -16 7 -7 27 6 27 18 0 12 -17 12 -25 -2z"/>
<path d="M3825 5390 c3 -5 8 -10 11 -10 2 0 4 5 4 10 0 6 -5 10 -11 10 -5 0
-7 -4 -4 -10z"/>
<path d="M3825 5360 c-3 -5 -1 -10 4 -10 6 0 11 5 11 10 0 6 -2 10 -4 10 -3 0
-8 -4 -11 -10z"/>
<path d="M2657 5323 c-11 -10 -8 -43 3 -43 6 0 10 11 10 25 0 26 -2 29 -13 18z"/>
<path d="M3627 5309 c7 -7 15 -10 18 -7 3 3 -2 9 -12 12 -14 6 -15 5 -6 -5z"/>
<path d="M3820 5300 c-13 -8 -12 -10 3 -10 9 0 17 5 17 10 0 12 -1 12 -20 0z"/>
<path d="M2545 5269 c-11 -17 1 -21 15 -4 8 9 8 15 2 15 -6 0 -14 -5 -17 -11z"/>
<path d="M3701 5264 c0 -11 3 -14 6 -6 3 7 2 16 -1 19 -3 4 -6 -2 -5 -13z"/>
<path d="M3751 5261 c-10 -7 -2 -14 33 -29 52 -23 60 -36 19 -29 -16 2 -22 2
-15 0 17 -6 15 -13 -5 -29 -16 -12 -15 -12 7 -7 14 3 34 12 44 19 16 11 24 10
48 -2 17 -9 32 -13 36 -10 3 3 1 6 -4 6 -6 0 -19 6 -29 14 -17 12 -18 16 -5
32 14 16 13 17 -5 10 -43 -17 -52 -16 -78 8 -32 30 -28 28 -46 17z"/>
<path d="M2497 5234 c-4 -4 -7 -19 -6 -33 l0 -26 10 24 c10 26 8 47 -4 35z"/>
<path d="M3644 5206 c-27 -24 -41 -31 -46 -23 -6 9 -8 9 -8 0 0 -7 -10 -14
-22 -14 -21 -1 -21 -2 -3 -6 11 -3 23 -10 26 -15 4 -5 13 -3 22 6 8 9 23 16
32 16 9 0 14 4 11 9 -3 4 3 16 12 25 16 14 21 14 38 1 28 -21 48 -19 27 3 -10
10 -24 16 -32 14 -9 -4 -12 -1 -7 6 14 23 -12 11 -50 -22z"/>
<path d="M3932 5220 c0 -14 2 -19 5 -12 2 6 2 18 0 25 -3 6 -5 1 -5 -13z"/>
<path d="M2600 5175 c0 -8 5 -15 10 -15 6 0 10 7 10 15 0 8 -4 15 -10 15 -5 0
-10 -7 -10 -15z"/>
<path d="M3648 5150 c-23 -22 -37 -40 -29 -40 7 0 31 18 53 40 52 52 33 52
-24 0z"/>
<path d="M2646 5160 c-29 -19 -48 -80 -25 -80 6 0 9 7 5 15 -3 9 0 15 10 15 8
0 13 4 9 10 -3 5 4 19 15 30 29 29 21 34 -14 10z"/>
<path d="M2440 5126 c0 -9 5 -16 10 -16 6 0 10 4 10 9 0 6 -4 13 -10 16 -5 3
-10 -1 -10 -9z"/>
<path d="M3492 5080 c-18 -16 -30 -30 -27 -30 4 0 -14 -23 -39 -51 -25 -28
-46 -56 -46 -63 1 -6 20 11 43 39 23 27 59 66 80 86 20 20 37 39 37 42 0 14
-17 6 -48 -23z"/>
<path d="M3440 5090 c0 -5 5 -10 10 -10 6 0 10 5 10 10 0 6 -4 10 -10 10 -5 0
-10 -4 -10 -10z"/>
<path d="M3270 5069 c0 -5 5 -7 10 -4 6 3 10 8 10 11 0 2 -4 4 -10 4 -5 0 -10
-5 -10 -11z"/>
<path d="M3814 5065 c-25 -19 -4 -19 32 0 24 12 26 15 8 15 -11 0 -29 -7 -40
-15z"/>
<path d="M3960 4999 c0 -11 4 -18 10 -14 5 3 7 12 3 20 -7 21 -13 19 -13 -6z"/>
<path d="M2445 4990 c3 -5 11 -10 16 -10 6 0 7 5 4 10 -3 6 -11 10 -16 10 -6
0 -7 -4 -4 -10z"/>
<path d="M2632 4964 c-29 -30 -73 -49 -58 -25 3 5 -7 14 -24 19 -34 12 -49 0
-30 -23 10 -12 10 -19 -1 -32 -13 -17 -13 -17 13 0 36 23 47 4 19 -34 -19 -26
-20 -30 -6 -35 18 -7 55 22 55 42 0 8 11 16 25 20 14 3 22 10 19 15 -3 5 4 19
15 31 23 24 24 28 13 45 -5 8 -18 1 -40 -23z"/>
<path d="M3305 4989 c-10 -15 3 -25 16 -12 7 7 7 13 1 17 -6 3 -14 1 -17 -5z"/>
<path d="M3761 4974 c0 -11 3 -14 6 -6 3 7 2 16 -1 19 -3 4 -6 -2 -5 -13z"/>
<path d="M3931 4945 c1 -19 18 -51 18 -35 0 8 -4 22 -9 30 -5 8 -9 11 -9 5z"/>
<path d="M2667 4913 c-15 -14 -7 -64 11 -69 9 -3 29 -12 44 -20 29 -15 38 -9
34 22 -3 22 -46 33 -47 12 0 -7 -9 4 -18 25 -10 20 -21 34 -24 30z"/>
<path d="M3660 4910 c0 -5 5 -10 11 -10 5 0 7 5 4 10 -3 6 -8 10 -11 10 -2 0
-4 -4 -4 -10z"/>
<path d="M2637 4883 c-4 -3 -7 -11 -7 -17 0 -6 5 -5 12 2 6 6 9 14 7 17 -3 3
-9 2 -12 -2z"/>
<path d="M2588 4823 c7 -3 16 -2 19 1 4 3 -2 6 -13 5 -11 0 -14 -3 -6 -6z"/>
<path d="M2790 4814 c0 -27 19 -53 64 -84 25 -16 49 -30 53 -30 5 0 7 16 5 35
-2 19 -10 35 -16 35 -7 0 -25 14 -41 30 -31 32 -65 40 -65 14z"/>
<path d="M2650 4816 c0 -2 9 -6 20 -9 11 -3 18 -1 14 4 -5 9 -34 13 -34 5z"/>
<path d="M3560 4810 c0 -5 7 -10 15 -10 8 0 15 5 15 10 0 6 -7 10 -15 10 -8 0
-15 -4 -15 -10z"/>
<path d="M4095 4810 c-3 -5 -1 -10 4 -10 6 0 11 5 11 10 0 6 -2 10 -4 10 -3 0
-8 -4 -11 -10z"/>
<path d="M3885 4790 c-3 -6 1 -7 9 -4 18 7 21 14 7 14 -6 0 -13 -4 -16 -10z"/>
<path d="M2545 4770 c4 -6 11 -8 16 -5 14 9 11 15 -7 15 -8 0 -12 -5 -9 -10z"/>
<path d="M3859 4753 c-13 -16 -12 -17 4 -4 16 13 21 21 13 21 -2 0 -10 -8 -17
-17z"/>
<path d="M3930 4751 c-8 -6 -18 -7 -24 -4 -5 3 -6 1 -2 -5 3 -6 -2 -15 -11
-21 -17 -10 -17 -10 2 -10 11 0 28 11 38 24 20 27 19 29 -3 16z"/>
<path d="M2400 4743 c1 -14 27 -43 38 -43 18 0 24 20 12 35 -13 15 -50 21 -50
8z"/>
<path d="M2940 4703 c-13 -16 -13 -22 8 -62 26 -51 41 -64 59 -50 9 8 7 20
-13 51 -14 22 -28 48 -32 59 -7 18 -8 18 -22 2z"/>
<path d="M2464 4691 c4 -5 2 -11 -4 -13 -6 -2 -6 -9 0 -17 7 -12 11 -13 24 -2
12 11 14 17 5 27 -13 15 -33 19 -25 5z"/>
<path d="M2622 4648 c-24 -27 -41 -52 -38 -55 6 -6 96 86 96 98 0 18 -16 6
-58 -43z"/>
<path d="M3512 4660 c-12 -19 -11 -20 8 -8 11 7 20 16 20 20 0 15 -15 8 -28
-12z"/>
<path d="M2523 4606 c0 -14 3 -23 7 -21 5 3 18 -7 29 -21 12 -15 24 -25 27
-21 8 8 -10 38 -39 65 l-24 23 0 -25z"/>
<path d="M3260 4620 c0 -5 5 -10 11 -10 5 0 7 5 4 10 -3 6 -8 10 -11 10 -2 0
-4 -4 -4 -10z"/>
<path d="M3200 4591 c-28 -24 -33 -32 -22 -42 8 -9 12 -10 12 -1 0 6 7 9 16 5
20 -7 38 18 21 29 -9 6 -7 12 7 23 11 8 15 15 10 15 -5 0 -25 -13 -44 -29z"/>
<path d="M4000 4595 c-7 -9 -11 -18 -8 -20 3 -3 11 1 18 10 7 9 11 18 8 20 -3
3 -11 -1 -18 -10z"/>
<path d="M3540 4541 c0 -13 79 -65 88 -57 9 10 -53 66 -73 66 -8 0 -15 -4 -15
-9z"/>
<path d="M3111 4519 c-12 -12 -21 -23 -18 -25 6 -7 67 27 67 37 0 16 -25 10
-49 -12z"/>
<path d="M3010 4510 c-6 -11 -8 -20 -6 -20 3 0 10 9 16 20 6 11 8 20 6 20 -3
0 -10 -9 -16 -20z"/>
<path d="M2650 4500 c6 -11 16 -20 22 -20 6 0 3 9 -7 20 -10 11 -20 20 -22 20
-2 0 1 -9 7 -20z"/>
<path d="M2610 4499 c0 -5 5 -7 10 -4 6 3 10 8 10 11 0 2 -4 4 -10 4 -5 0 -10
-5 -10 -11z"/>
<path d="M3000 4420 c0 -5 5 -10 10 -10 6 0 10 5 10 10 0 6 -4 10 -10 10 -5 0
-10 -4 -10 -10z"/>
<path d="M2351 4318 c0 -43 24 -176 33 -185 3 -4 4 7 1 23 -2 16 -7 64 -11
106 -6 77 -24 121 -23 56z"/>
<path d="M3020 4325 c7 -9 15 -13 17 -11 7 7 -7 26 -19 26 -6 0 -6 -6 2 -15z"/>
<path d="M2231 4274 c0 -11 3 -14 6 -6 3 7 2 16 -1 19 -3 4 -6 -2 -5 -13z"/>
<path d="M2827 4230 c-25 -28 -26 -30 -7 -30 23 0 60 29 60 47 0 22 -26 14
-53 -17z"/>
<path d="M3139 4233 c-13 -16 -12 -17 4 -4 16 13 21 21 13 21 -2 0 -10 -8 -17
-17z"/>
<path d="M2214 4196 c-3 -8 -13 -12 -22 -9 -13 4 -14 3 -3 -5 10 -7 11 -14 1
-32 -17 -32 -6 -35 26 -6 16 14 23 26 16 26 -9 0 -11 7 -7 20 7 23 -3 28 -11
6z"/>
<path d="M2220 4109 c-7 -11 -10 -23 -7 -25 2 -2 9 7 15 21 14 30 7 33 -8 4z"/>
<path d="M2243 3983 c-13 -5 -19 -33 -7 -33 15 0 44 22 39 31 -7 10 -13 10
-32 2z"/>
<path d="M2217 3796 c-27 -41 -39 -114 -40 -246 -1 -145 15 -239 49 -275 27
-29 37 -31 58 -10 61 61 73 424 17 520 -23 40 -62 45 -84 11z"/>
<path d="M3265 3409 c-4 -6 12 -27 36 -47 24 -20 52 -45 61 -54 18 -18 38 -24
37 -10 0 4 -27 29 -59 56 -32 28 -57 53 -54 58 3 4 1 8 -5 8 -5 0 -13 -5 -16
-11z"/>
<path d="M3080 3296 c0 -9 5 -16 10 -16 6 0 10 4 10 9 0 6 -4 13 -10 16 -5 3
-10 -1 -10 -9z"/>
<path d="M3405 3270 c3 -5 8 -10 11 -10 2 0 4 5 4 10 0 6 -5 10 -11 10 -5 0
-7 -4 -4 -10z"/>
<path d="M2216 2827 c3 -10 9 -15 12 -12 3 3 0 11 -7 18 -10 9 -11 8 -5 -6z"/>
<path d="M2380 2741 c0 -5 5 -13 10 -16 6 -3 10 -2 10 4 0 5 -4 13 -10 16 -5
3 -10 2 -10 -4z"/>
<path d="M1745 2700 c-3 -5 -1 -10 4 -10 6 0 11 5 11 10 0 6 -2 10 -4 10 -3 0
-8 -4 -11 -10z"/>
<path d="M1815 2680 c8 -12 65 -13 65 -2 0 5 -16 9 -35 10 -21 1 -33 -3 -30
-8z"/>
<path d="M3554 2656 c-7 -19 0 -173 9 -182 3 -4 13 -4 21 -1 11 4 14 26 13 99
-2 80 -4 93 -20 96 -9 2 -20 -3 -23 -12z"/>
<path d="M3190 2650 c0 -5 4 -10 9 -10 6 0 13 5 16 10 3 6 -1 10 -9 10 -9 0
-16 -4 -16 -10z"/>
<path d="M3375 2630 c-3 -5 -1 -10 4 -10 6 0 11 5 11 10 0 6 -2 10 -4 10 -3 0
-8 -4 -11 -10z"/>
<path d="M2496 2610 c30 -51 61 -90 77 -94 18 -4 18 -4 0 17 -34 41 -86 92
-77 77z"/>
<path d="M1935 2559 c-27 -21 -56 -38 -62 -38 -7 -1 -13 -5 -13 -10 0 -15 53
2 97 31 24 16 43 33 43 38 0 21 -18 15 -65 -21z"/>
<path d="M2266 2585 c5 -11 -1 -15 -20 -15 -26 0 -35 -13 -16 -25 6 -3 10 -1
10 4 0 6 9 11 20 11 27 0 25 -18 -2 -30 -19 -7 -15 -9 22 -9 35 0 41 2 28 10
-26 15 -22 29 8 29 23 0 26 -4 22 -24 -5 -23 -3 -24 26 -19 41 8 46 13 13 13
-44 0 -34 30 11 32 l37 1 -35 4 c-19 3 -38 10 -42 16 -6 9 -8 9 -8 0 0 -18
-47 -16 -54 2 -3 8 -10 15 -15 15 -6 0 -8 -7 -5 -15z"/>
<path d="M1848 2573 c6 -2 18 -2 25 0 6 3 1 5 -13 5 -14 0 -19 -2 -12 -5z"/>
<path d="M1760 2551 c0 -5 12 -12 28 -15 15 -4 35 -9 45 -12 9 -3 17 -1 17 4
0 5 -17 14 -39 20 -46 14 -51 15 -51 3z"/>
<path d="M3420 2550 c0 -5 5 -10 10 -10 6 0 10 -7 10 -15 0 -8 5 -15 10 -15
14 0 13 23 -2 38 -15 15 -28 16 -28 2z"/>
<path d="M2765 2490 l-30 -8 28 -1 c44 -2 35 -31 -10 -33 l-38 -1 35 -4 c19
-3 38 -10 42 -16 6 -9 8 -9 8 1 0 17 47 15 54 -3 3 -8 10 -15 15 -15 6 0 8 7
5 15 -5 11 1 15 20 15 26 0 35 13 16 25 -5 3 -10 1 -10 -4 0 -6 -9 -11 -20
-11 -27 0 -25 18 3 30 18 7 14 9 -23 9 -35 0 -41 -2 -27 -10 25 -15 21 -29 -9
-29 -23 0 -26 3 -22 25 3 14 2 24 -1 24 -3 -1 -19 -5 -36 -9z"/>
<path d="M2641 2461 c12 -17 26 -31 31 -31 17 0 7 17 -23 39 l-31 23 23 -31z"/>
<path d="M3255 2461 c-23 -17 -40 -38 -41 -50 -2 -26 8 -27 24 -1 7 12 23 20
40 20 19 0 23 3 13 9 -20 13 22 24 59 16 37 -8 39 6 3 23 -38 17 -53 15 -98
-17z"/>
<path d="M3010 2455 c0 -22 3 -25 26 -19 15 4 29 2 33 -4 4 -7 13 -6 25 4 18
13 17 14 -16 14 -23 0 -38 6 -42 15 -9 24 -26 17 -26 -10z"/>
<path d="M3395 2440 c-3 -4 3 -11 13 -15 9 -3 17 -6 17 -5 0 1 13 -4 30 -10
28 -11 29 -11 11 8 -18 21 -63 34 -71 22z"/>
<path d="M2695 2400 c10 -11 20 -20 22 -20 2 0 -1 9 -7 20 -6 11 -16 20 -22
20 -6 0 -3 -9 7 -20z"/>
<path d="M3159 2397 c-74 -45 -118 -83 -119 -99 0 -25 17 -22 47 8 l27 27 34
-37 c39 -43 54 -42 22 2 -25 34 -20 67 11 77 10 4 19 15 19 26 0 23 3 23 -41
-4z"/>
<path d="M2555 2400 c3 -5 11 -10 16 -10 6 0 7 5 4 10 -3 6 -11 10 -16 10 -6
0 -7 -4 -4 -10z"/>
<path d="M3526 2391 c-3 -5 1 -11 9 -14 9 -4 12 -1 8 9 -6 16 -10 17 -17 5z"/>
<path d="M3378 2363 c7 -3 16 -2 19 1 4 3 -2 6 -13 5 -11 0 -14 -3 -6 -6z"/>
<path d="M1995 2350 c-3 -5 1 -10 9 -10 9 0 16 5 16 10 0 6 -4 10 -9 10 -6 0
-13 -4 -16 -10z"/>
<path d="M3471 2344 c0 -11 3 -14 6 -6 3 7 2 16 -1 19 -3 4 -6 -2 -5 -13z"/>
<path d="M2760 2332 c0 -12 19 -26 26 -19 2 2 -2 10 -11 17 -9 8 -15 8 -15 2z"/>
<path d="M3260 2332 c0 -5 16 -9 35 -10 19 -1 35 3 35 8 0 6 -16 10 -35 10
-19 0 -35 -4 -35 -8z"/>
<path d="M2754 2285 c8 -8 21 -15 28 -15 8 1 6 6 -6 15 -26 20 -42 19 -22 0z"/>
<path d="M2806 2275 c9 -14 19 -24 21 -21 6 6 -20 46 -30 46 -4 0 0 -11 9 -25z"/>
<path d="M1934 5235 c-10 -8 -14 -15 -8 -15 6 0 17 7 24 15 16 19 9 19 -16 0z"/>
<path d="M1606 4971 c-17 -19 -17 -19 2 -14 12 3 23 11 26 19 8 20 -8 17 -28
-5z"/>
<path d="M1406 4893 c-6 -14 -5 -15 5 -6 7 7 10 15 7 18 -3 3 -9 -2 -12 -12z"/>
<path d="M1340 4850 c0 -5 5 -10 10 -10 6 0 10 5 10 10 0 6 -4 10 -10 10 -5 0
-10 -4 -10 -10z"/>
<path d="M1369 4837 c-17 -13 -32 -47 -21 -47 4 0 15 14 24 30 9 17 16 30 15
30 -1 0 -9 -6 -18 -13z"/>
<path d="M1250 4741 c-19 -16 -33 -32 -30 -34 3 -3 23 10 45 29 22 18 36 34
30 34 -5 0 -26 -14 -45 -29z"/>
<path d="M4142 5075 c0 -16 2 -22 5 -12 2 9 2 23 0 30 -3 6 -5 -1 -5 -18z"/>
<path d="M4365 4901 c-6 -11 12 -25 37 -26 17 -2 17 0 1 17 -18 20 -29 23 -38
9z"/>
<path d="M1503 4533 c-26 -10 -23 -14 158 -227 12 -14 39 13 39 40 0 20 -109
161 -145 186 -11 9 -34 9 -52 1z"/>
<path d="M4782 4490 c-10 -17 -10 -20 3 -20 8 0 15 9 15 20 0 11 -1 20 -3 20
-1 0 -8 -9 -15 -20z"/>
<path d="M600 3851 c0 -6 4 -13 10 -16 6 -3 7 1 4 9 -7 18 -14 21 -14 7z"/>
<path d="M516 3574 c-18 -26 -18 -26 1 -15 11 6 24 7 28 3 5 -4 5 -2 1 5 -3 6
2 16 11 22 17 10 17 10 -2 10 -11 0 -28 -11 -39 -25z"/>
<path d="M450 3261 c0 -11 4 -22 9 -25 4 -3 6 6 3 19 -5 30 -12 33 -12 6z"/>
<path d="M490 3269 c0 -5 5 -7 10 -4 6 3 10 8 10 11 0 2 -4 4 -10 4 -5 0 -10
-5 -10 -11z"/>
<path d="M1220 4305 c0 -8 5 -15 10 -15 6 0 10 -9 10 -20 0 -12 31 -46 86 -92
117 -100 129 -107 150 -86 9 9 14 24 10 35 -5 17 -114 113 -181 160 -41 29
-85 38 -85 18z"/>
<path d="M4610 3996 c0 -2 8 -10 18 -17 15 -13 16 -12 3 4 -13 16 -21 21 -21
13z"/>
<path d="M1303 2768 c3 -9 1 -19 -6 -22 -7 -2 -5 -5 5 -5 24 -1 29 12 10 29
-14 13 -15 12 -9 -2z"/>
<path d="M1345 2750 c3 -5 8 -10 11 -10 2 0 4 5 4 10 0 6 -5 10 -11 10 -5 0
-7 -4 -4 -10z"/>
<path d="M1790 1730 c0 -5 5 -10 11 -10 5 0 7 5 4 10 -3 6 -8 10 -11 10 -2 0
-4 -4 -4 -10z"/>
<path d="M2100 1540 c0 -5 5 -10 10 -10 6 0 10 5 10 10 0 6 -4 10 -10 10 -5 0
-10 -4 -10 -10z"/>
<path d="M2124 1522 c-14 -9 -26 -42 -15 -42 4 0 13 11 19 25 13 27 12 28 -4
17z"/>
<path d="M5138 4033 c7 -3 16 -2 19 1 4 3 -2 6 -13 5 -11 0 -14 -3 -6 -6z"/>
<path d="M5050 4021 c0 -6 4 -13 10 -16 6 -3 7 1 4 9 -7 18 -14 21 -14 7z"/>
<path d="M5164 3921 c7 -11 46 -35 46 -28 0 3 -12 12 -26 22 -15 9 -23 12 -20
6z"/>
<path d="M5122 3895 c0 -16 2 -22 5 -12 2 9 2 23 0 30 -3 6 -5 -1 -5 -18z"/>
<path d="M5386 2955 c4 -8 11 -15 16 -15 6 0 5 6 -2 15 -7 8 -14 15 -16 15 -2
0 -1 -7 2 -15z"/>
<path d="M1100 4000 c0 -6 -10 -8 -23 -5 -18 5 -26 1 -35 -19 -11 -25 -9 -27
86 -82 53 -31 108 -63 121 -71 24 -15 38 -9 41 17 4 30 -1 39 -32 57 -18 11
-59 35 -90 53 -31 19 -55 37 -52 41 2 4 0 10 -6 14 -5 3 -10 1 -10 -5z"/>
<path d="M1318 3803 c-16 -8 -28 -18 -28 -24 0 -16 25 -10 48 11 36 33 27 39
-20 13z"/>
<path d="M4494 2996 c0 -31 6 -56 11 -56 12 0 7 90 -5 103 -4 5 -7 -16 -6 -47z"/>
<path d="M3960 3170 c0 -11 7 -20 15 -20 17 0 18 2 9 24 -9 23 -24 20 -24 -4z"/>
<path d="M4097 3063 c-4 -3 -7 -13 -7 -22 1 -13 3 -13 11 2 11 19 8 33 -4 20z"/>
<path d="M3985 3000 c-3 -5 -1 -10 4 -10 6 0 11 5 11 10 0 6 -2 10 -4 10 -3 0
-8 -4 -11 -10z"/>
<path d="M860 3500 c0 -5 7 -10 15 -10 8 0 15 5 15 10 0 6 -7 10 -15 10 -8 0
-15 -4 -15 -10z"/>
<path d="M800 3006 c0 -2 7 -7 16 -10 8 -3 12 -2 9 4 -6 10 -25 14 -25 6z"/>
<path d="M4838 3023 c7 -3 16 -2 19 1 4 3 -2 6 -13 5 -11 0 -14 -3 -6 -6z"/>
<path d="M5065 2860 c4 -6 11 -8 16 -5 14 9 11 15 -7 15 -8 0 -12 -5 -9 -10z"/>
<path d="M5005 2830 c-3 -5 -1 -10 4 -10 6 0 11 5 11 10 0 6 -2 10 -4 10 -3 0
-8 -4 -11 -10z"/>
<path d="M5357 2580 c3 -11 10 -23 16 -27 5 -3 7 -1 4 4 -4 6 1 14 10 17 15 6
15 8 3 16 -25 16 -39 11 -33 -10z"/>
<path d="M5320 2580 c-13 -8 -12 -10 3 -10 9 0 17 5 17 10 0 12 -1 12 -20 0z"/>
<path d="M871 2511 c-13 -8 -7 -51 7 -51 18 1 34 19 30 35 -4 22 -18 28 -37
16z"/>
<path d="M887 2446 c-4 -10 -1 -13 9 -9 7 3 14 9 14 14 0 14 -17 10 -23 -5z"/>
<path d="M933 2443 c-18 -7 -16 -23 2 -23 8 0 15 7 15 15 0 8 -1 15 -2 14 -2
0 -9 -3 -15 -6z"/>
<path d="M4085 2520 c-3 -5 1 -10 10 -10 9 0 13 5 10 10 -3 6 -8 10 -10 10 -2
0 -7 -4 -10 -10z"/>
<path d="M4411 2484 c0 -11 3 -14 6 -6 3 7 2 16 -1 19 -3 4 -6 -2 -5 -13z"/>
<path d="M524 2188 c-7 -11 28 -10 46 2 11 7 8 9 -13 8 -16 -2 -31 -6 -33 -10z"/>
<path d="M635 1940 c4 -6 11 -8 16 -5 14 9 11 15 -7 15 -8 0 -12 -5 -9 -10z"/>
<path d="M5280 2270 c8 -5 29 -9 45 -9 29 1 29 1 5 9 -14 4 -34 8 -45 9 -16 1
-17 -1 -5 -9z"/>
<path d="M5220 2052 c0 -5 7 -13 16 -16 10 -4 14 -1 12 6 -5 15 -28 23 -28 10z"/>
<path d="M5180 1975 c-10 -12 -10 -15 4 -15 9 0 16 7 16 15 0 8 -2 15 -4 15
-2 0 -9 -7 -16 -15z"/>
<path d="M3988 2303 c7 -3 16 -2 19 1 4 3 -2 6 -13 5 -11 0 -14 -3 -6 -6z"/>
<path d="M3970 2262 c0 -12 3 -12 15 -2 8 7 15 13 15 15 0 1 -7 2 -15 2 -8 0
-15 -7 -15 -15z"/>
<path d="M4058 2253 c7 -3 16 -2 19 1 4 3 -2 6 -13 5 -11 0 -14 -3 -6 -6z"/>
<path d="M4018 2243 c7 -3 16 -2 19 1 4 3 -2 6 -13 5 -11 0 -14 -3 -6 -6z"/>
<path d="M3960 1769 c0 -5 5 -7 10 -4 6 3 10 8 10 11 0 2 -4 4 -10 4 -5 0 -10
-5 -10 -11z"/>
<path d="M3665 2220 c4 -6 11 -8 16 -5 14 9 11 15 -7 15 -8 0 -12 -5 -9 -10z"/>
<path d="M3580 2201 c0 -5 9 -7 20 -4 11 3 20 7 20 9 0 2 -9 4 -20 4 -11 0
-20 -4 -20 -9z"/>
<path d="M1210 1999 c0 -5 5 -7 10 -4 6 3 10 8 10 11 0 2 -4 4 -10 4 -5 0 -10
-5 -10 -11z"/>
<path d="M3375 2150 c-3 -5 -2 -10 4 -10 5 0 13 5 16 10 3 6 2 10 -4 10 -5 0
-13 -4 -16 -10z"/>
<path d="M3050 1989 c0 -5 5 -7 10 -4 6 3 10 8 10 11 0 2 -4 4 -10 4 -5 0 -10
-5 -10 -11z"/>
<path d="M3360 1860 c0 -5 5 -10 10 -10 6 0 10 5 10 10 0 6 -4 10 -10 10 -5 0
-10 -4 -10 -10z"/>
<path d="M3403 1849 c-20 -13 -30 -26 -26 -35 6 -16 23 -19 23 -4 0 6 9 19 21
31 28 28 20 32 -18 8z"/>
<path d="M2090 1820 c27 -39 34 -39 12 0 -9 16 -21 30 -25 30 -5 0 1 -13 13
-30z"/>
<path d="M1087 1804 c-54 -34 -70 -61 -41 -71 16 -5 134 75 134 92 0 24 -31
17 -93 -21z"/>
<path d="M4631 1614 c0 -11 3 -14 6 -6 3 7 2 16 -1 19 -3 4 -6 -2 -5 -13z"/>
<path d="M4837 1323 c-4 -3 -7 -11 -7 -17 0 -6 5 -5 12 2 6 6 9 14 7 17 -3 3
-9 2 -12 -2z"/>
<path d="M4543 1118 c-7 -9 -4 -18 7 -29 16 -15 17 -14 16 12 -1 31 -8 36 -23
17z"/>
<path d="M1620 779 c0 -6 -7 -8 -16 -5 -13 5 -14 4 -6 -7 7 -8 8 -18 4 -22 -4
-5 1 -5 10 -2 10 3 38 -5 65 -20 26 -14 43 -21 37 -14 -6 6 -26 20 -45 30 -19
11 -33 26 -33 35 1 9 -2 16 -7 16 -5 0 -9 -5 -9 -11z"/>
<path d="M1860 690 c0 -5 5 -10 11 -10 5 0 7 5 4 10 -3 6 -8 10 -11 10 -2 0
-4 -4 -4 -10z"/>
<path d="M2195 580 c-3 -5 -1 -10 4 -10 6 0 11 5 11 10 0 6 -2 10 -4 10 -3 0
-8 -4 -11 -10z"/>
<path d="M2475 510 c10 -11 20 -20 22 -20 2 0 -1 9 -7 20 -6 11 -16 20 -22 20
-6 0 -3 -9 7 -20z"/>
<path d="M2515 510 c-3 -5 -1 -10 4 -10 6 0 11 5 11 10 0 6 -2 10 -4 10 -3 0
-8 -4 -11 -10z"/>
<path d="M3120 455 c-13 -14 -21 -27 -18 -30 2 -3 14 9 27 25 26 37 23 39 -9
5z"/>
<path d="M1451 1374 c-42 -48 -49 -68 -30 -79 13 -9 112 92 106 108 -8 26 -37
16 -76 -29z"/>
<path d="M3224 1381 c4 -5 2 -11 -4 -13 -6 -2 -6 -9 0 -17 7 -12 11 -13 24 -2
12 11 14 17 5 27 -13 15 -33 19 -25 5z"/>
<path d="M2835 1369 c-11 -17 1 -21 15 -4 8 9 8 15 2 15 -6 0 -14 -5 -17 -11z"/>
<path d="M3937 1163 c-10 -10 -8 -41 3 -48 5 -3 18 0 29 7 19 11 19 14 4 30
-17 19 -26 22 -36 11z"/>
<path d="M3730 1040 c0 -5 -8 -7 -17 -3 -17 6 -17 5 -2 -13 9 -10 29 -45 43
-76 20 -42 31 -55 42 -51 33 12 -21 152 -58 153 -5 0 -8 -4 -8 -10z"/>
<path d="M3840 970 c0 -5 5 -10 10 -10 6 0 10 5 10 10 0 6 -4 10 -10 10 -5 0
-10 -4 -10 -10z"/>
<path d="M3829 933 c-13 -16 -12 -17 4 -4 16 13 21 21 13 21 -2 0 -10 -8 -17
-17z"/>
<path d="M2187 873 c-4 -3 -7 -17 -7 -30 0 -16 6 -23 20 -23 18 0 40 26 40 49
0 12 -43 15 -53 4z"/>
<path d="M2906 893 c-6 -14 -5 -15 5 -6 7 7 10 15 7 18 -3 3 -9 -2 -12 -12z"/>
<path d="M2847 874 c-4 -4 -7 -16 -7 -26 0 -13 7 -18 26 -18 21 0 25 4 22 22
-3 23 -27 35 -41 22z"/>
</g>
</svg>
